ISO-10303-21;
HEADER;
FILE_DESCRIPTION(('Open CASCADE Model'),'2;1');
FILE_NAME('Open CASCADE Shape Model','2026-09-17T22:23:07',('Author'),(
    'Open CASCADE'),'Open CASCADE STEP processor 7.9','Open CASCADE 7.9'
  ,'Unknown');
FILE_SCHEMA(('AUTOMOTIVE_DESIGN { 1 0 10303 214 1 1 1 1 }'));
ENDSEC;
DATA;
#1 = APPLICATION_PROTOCOL_DEFINITION('international standard',
  'automotive_design',2000,#2);
#2 = APPLICATION_CONTEXT(
  'core data for automotive mechanical design processes');
#3 = SHAPE_DEFINITION_REPRESENTATION(#4,#10);
#4 = PRODUCT_DEFINITION_SHAPE('','',#5);
#5 = PRODUCT_DEFINITION('design','',#6,#9);
#6 = PRODUCT_DEFINITION_FORMATION('','',#7);
#7 = PRODUCT('Open CASCADE STEP translator 7.9 49',
  'Open CASCADE STEP translator 7.9 49','',(#8));
#8 = PRODUCT_CONTEXT('',#2,'mechanical');
#9 = PRODUCT_DEFINITION_CONTEXT('part definition',#2,'design');
#10 = ADVANCED_BREP_SHAPE_REPRESENTATION('',(#11,#15),#1119);
#11 = AXIS2_PLACEMENT_3D('',#12,#13,#14);
#12 = CARTESIAN_POINT('',(0.,0.,0.));
#13 = DIRECTION('',(0.,0.,1.));
#14 = DIRECTION('',(1.,0.,-0.));
#15 = BREP_WITH_VOIDS('',#16,(#345));
#16 = CLOSED_SHELL('',(#17,#137,#213,#262,#311,#338));
#17 = ADVANCED_FACE('',(#18),#32,.F.);
#18 = FACE_BOUND('',#19,.F.);
#19 = EDGE_LOOP('',(#20,#55,#83,#111));
#20 = ORIENTED_EDGE('',*,*,#21,.F.);
#21 = EDGE_CURVE('',#22,#24,#26,.T.);
#22 = VERTEX_POINT('',#23);
#23 = CARTESIAN_POINT('',(-95.,-55.,-22.5));
#24 = VERTEX_POINT('',#25);
#25 = CARTESIAN_POINT('',(-95.,-55.,22.5));
#26 = SURFACE_CURVE('',#27,(#31,#43),.PCURVE_S1.);
#27 = LINE('',#28,#29);
#28 = CARTESIAN_POINT('',(-95.,-55.,-22.5));
#29 = VECTOR('',#30,1.);
#30 = DIRECTION('',(0.,0.,1.));
#31 = PCURVE('',#32,#37);
#32 = PLANE('',#33);
#33 = AXIS2_PLACEMENT_3D('',#34,#35,#36);
#34 = CARTESIAN_POINT('',(-95.,-55.,-22.5));
#35 = DIRECTION('',(1.,0.,0.));
#36 = DIRECTION('',(0.,0.,1.));
#37 = DEFINITIONAL_REPRESENTATION('',(#38),#42);
#38 = LINE('',#39,#40);
#39 = CARTESIAN_POINT('',(0.,0.));
#40 = VECTOR('',#41,1.);
#41 = DIRECTION('',(1.,0.));
#42 = ( GEOMETRIC_REPRESENTATION_CONTEXT(2) 
PARAMETRIC_REPRESENTATION_CONTEXT() REPRESENTATION_CONTEXT('2D SPACE',''
  ) );
#43 = PCURVE('',#44,#49);
#44 = PLANE('',#45);
#45 = AXIS2_PLACEMENT_3D('',#46,#47,#48);
#46 = CARTESIAN_POINT('',(-95.,-55.,-22.5));
#47 = DIRECTION('',(0.,1.,0.));
#48 = DIRECTION('',(0.,0.,1.));
#49 = DEFINITIONAL_REPRESENTATION('',(#50),#54);
#50 = LINE('',#51,#52);
#51 = CARTESIAN_POINT('',(0.,0.));
#52 = VECTOR('',#53,1.);
#53 = DIRECTION('',(1.,0.));
#54 = ( GEOMETRIC_REPRESENTATION_CONTEXT(2) 
PARAMETRIC_REPRESENTATION_CONTEXT() REPRESENTATION_CONTEXT('2D SPACE',''
  ) );
#55 = ORIENTED_EDGE('',*,*,#56,.T.);
#56 = EDGE_CURVE('',#22,#57,#59,.T.);
#57 = VERTEX_POINT('',#58);
#58 = CARTESIAN_POINT('',(-95.,55.,-22.5));
#59 = SURFACE_CURVE('',#60,(#64,#71),.PCURVE_S1.);
#60 = LINE('',#61,#62);
#61 = CARTESIAN_POINT('',(-95.,-55.,-22.5));
#62 = VECTOR('',#63,1.);
#63 = DIRECTION('',(0.,1.,0.));
#64 = PCURVE('',#32,#65);
#65 = DEFINITIONAL_REPRESENTATION('',(#66),#70);
#66 = LINE('',#67,#68);
#67 = CARTESIAN_POINT('',(0.,0.));
#68 = VECTOR('',#69,1.);
#69 = DIRECTION('',(0.,-1.));
#70 = ( GEOMETRIC_REPRESENTATION_CONTEXT(2) 
PARAMETRIC_REPRESENTATION_CONTEXT() REPRESENTATION_CONTEXT('2D SPACE',''
  ) );
#71 = PCURVE('',#72,#77);
#72 = PLANE('',#73);
#73 = AXIS2_PLACEMENT_3D('',#74,#75,#76);
#74 = CARTESIAN_POINT('',(-95.,-55.,-22.5));
#75 = DIRECTION('',(0.,0.,1.));
#76 = DIRECTION('',(1.,0.,0.));
#77 = DEFINITIONAL_REPRESENTATION('',(#78),#82);
#78 = LINE('',#79,#80);
#79 = CARTESIAN_POINT('',(0.,0.));
#80 = VECTOR('',#81,1.);
#81 = DIRECTION('',(0.,1.));
#82 = ( GEOMETRIC_REPRESENTATION_CONTEXT(2) 
PARAMETRIC_REPRESENTATION_CONTEXT() REPRESENTATION_CONTEXT('2D SPACE',''
  ) );
#83 = ORIENTED_EDGE('',*,*,#84,.T.);
#84 = EDGE_CURVE('',#57,#85,#87,.T.);
#85 = VERTEX_POINT('',#86);
#86 = CARTESIAN_POINT('',(-95.,55.,22.5));
#87 = SURFACE_CURVE('',#88,(#92,#99),.PCURVE_S1.);
#88 = LINE('',#89,#90);
#89 = CARTESIAN_POINT('',(-95.,55.,-22.5));
#90 = VECTOR('',#91,1.);
#91 = DIRECTION('',(0.,0.,1.));
#92 = PCURVE('',#32,#93);
#93 = DEFINITIONAL_REPRESENTATION('',(#94),#98);
#94 = LINE('',#95,#96);
#95 = CARTESIAN_POINT('',(0.,-110.));
#96 = VECTOR('',#97,1.);
#97 = DIRECTION('',(1.,0.));
#98 = ( GEOMETRIC_REPRESENTATION_CONTEXT(2) 
PARAMETRIC_REPRESENTATION_CONTEXT() REPRESENTATION_CONTEXT('2D SPACE',''
  ) );
#99 = PCURVE('',#100,#105);
#100 = PLANE('',#101);
#101 = AXIS2_PLACEMENT_3D('',#102,#103,#104);
#102 = CARTESIAN_POINT('',(-95.,55.,-22.5));
#103 = DIRECTION('',(0.,1.,0.));
#104 = DIRECTION('',(0.,0.,1.));
#105 = DEFINITIONAL_REPRESENTATION('',(#106),#110);
#106 = LINE('',#107,#108);
#107 = CARTESIAN_POINT('',(0.,0.));
#108 = VECTOR('',#109,1.);
#109 = DIRECTION('',(1.,0.));
#110 = ( GEOMETRIC_REPRESENTATION_CONTEXT(2) 
PARAMETRIC_REPRESENTATION_CONTEXT() REPRESENTATION_CONTEXT('2D SPACE',''
  ) );
#111 = ORIENTED_EDGE('',*,*,#112,.F.);
#112 = EDGE_CURVE('',#24,#85,#113,.T.);
#113 = SURFACE_CURVE('',#114,(#118,#125),.PCURVE_S1.);
#114 = LINE('',#115,#116);
#115 = CARTESIAN_POINT('',(-95.,-55.,22.5));
#116 = VECTOR('',#117,1.);
#117 = DIRECTION('',(0.,1.,0.));
#118 = PCURVE('',#32,#119);
#119 = DEFINITIONAL_REPRESENTATION('',(#120),#124);
#120 = LINE('',#121,#122);
#121 = CARTESIAN_POINT('',(45.,0.));
#122 = VECTOR('',#123,1.);
#123 = DIRECTION('',(0.,-1.));
#124 = ( GEOMETRIC_REPRESENTATION_CONTEXT(2) 
PARAMETRIC_REPRESENTATION_CONTEXT() REPRESENTATION_CONTEXT('2D SPACE',''
  ) );
#125 = PCURVE('',#126,#131);
#126 = PLANE('',#127);
#127 = AXIS2_PLACEMENT_3D('',#128,#129,#130);
#128 = CARTESIAN_POINT('',(-95.,-55.,22.5));
#129 = DIRECTION('',(0.,0.,1.));
#130 = DIRECTION('',(1.,0.,0.));
#131 = DEFINITIONAL_REPRESENTATION('',(#132),#136);
#132 = LINE('',#133,#134);
#133 = CARTESIAN_POINT('',(0.,0.));
#134 = VECTOR('',#135,1.);
#135 = DIRECTION('',(0.,1.));
#136 = ( GEOMETRIC_REPRESENTATION_CONTEXT(2) 
PARAMETRIC_REPRESENTATION_CONTEXT() REPRESENTATION_CONTEXT('2D SPACE',''
  ) );
#137 = ADVANCED_FACE('',(#138),#44,.F.);
#138 = FACE_BOUND('',#139,.F.);
#139 = EDGE_LOOP('',(#140,#163,#164,#187));
#140 = ORIENTED_EDGE('',*,*,#141,.F.);
#141 = EDGE_CURVE('',#22,#142,#144,.T.);
#142 = VERTEX_POINT('',#143);
#143 = CARTESIAN_POINT('',(95.,-55.,-22.5));
#144 = SURFACE_CURVE('',#145,(#149,#156),.PCURVE_S1.);
#145 = LINE('',#146,#147);
#146 = CARTESIAN_POINT('',(-95.,-55.,-22.5));
#147 = VECTOR('',#148,1.);
#148 = DIRECTION('',(1.,0.,0.));
#149 = PCURVE('',#44,#150);
#150 = DEFINITIONAL_REPRESENTATION('',(#151),#155);
#151 = LINE('',#152,#153);
#152 = CARTESIAN_POINT('',(0.,0.));
#153 = VECTOR('',#154,1.);
#154 = DIRECTION('',(0.,1.));
#155 = ( GEOMETRIC_REPRESENTATION_CONTEXT(2) 
PARAMETRIC_REPRESENTATION_CONTEXT() REPRESENTATION_CONTEXT('2D SPACE',''
  ) );
#156 = PCURVE('',#72,#157);
#157 = DEFINITIONAL_REPRESENTATION('',(#158),#162);
#158 = LINE('',#159,#160);
#159 = CARTESIAN_POINT('',(0.,0.));
#160 = VECTOR('',#161,1.);
#161 = DIRECTION('',(1.,0.));
#162 = ( GEOMETRIC_REPRESENTATION_CONTEXT(2) 
PARAMETRIC_REPRESENTATION_CONTEXT() REPRESENTATION_CONTEXT('2D SPACE',''
  ) );
#163 = ORIENTED_EDGE('',*,*,#21,.T.);
#164 = ORIENTED_EDGE('',*,*,#165,.T.);
#165 = EDGE_CURVE('',#24,#166,#168,.T.);
#166 = VERTEX_POINT('',#167);
#167 = CARTESIAN_POINT('',(95.,-55.,22.5));
#168 = SURFACE_CURVE('',#169,(#173,#180),.PCURVE_S1.);
#169 = LINE('',#170,#171);
#170 = CARTESIAN_POINT('',(-95.,-55.,22.5));
#171 = VECTOR('',#172,1.);
#172 = DIRECTION('',(1.,0.,0.));
#173 = PCURVE('',#44,#174);
#174 = DEFINITIONAL_REPRESENTATION('',(#175),#179);
#175 = LINE('',#176,#177);
#176 = CARTESIAN_POINT('',(45.,0.));
#177 = VECTOR('',#178,1.);
#178 = DIRECTION('',(0.,1.));
#179 = ( GEOMETRIC_REPRESENTATION_CONTEXT(2) 
PARAMETRIC_REPRESENTATION_CONTEXT() REPRESENTATION_CONTEXT('2D SPACE',''
  ) );
#180 = PCURVE('',#126,#181);
#181 = DEFINITIONAL_REPRESENTATION('',(#182),#186);
#182 = LINE('',#183,#184);
#183 = CARTESIAN_POINT('',(0.,0.));
#184 = VECTOR('',#185,1.);
#185 = DIRECTION('',(1.,0.));
#186 = ( GEOMETRIC_REPRESENTATION_CONTEXT(2) 
PARAMETRIC_REPRESENTATION_CONTEXT() REPRESENTATION_CONTEXT('2D SPACE',''
  ) );
#187 = ORIENTED_EDGE('',*,*,#188,.F.);
#188 = EDGE_CURVE('',#142,#166,#189,.T.);
#189 = SURFACE_CURVE('',#190,(#194,#201),.PCURVE_S1.);
#190 = LINE('',#191,#192);
#191 = CARTESIAN_POINT('',(95.,-55.,-22.5));
#192 = VECTOR('',#193,1.);
#193 = DIRECTION('',(0.,0.,1.));
#194 = PCURVE('',#44,#195);
#195 = DEFINITIONAL_REPRESENTATION('',(#196),#200);
#196 = LINE('',#197,#198);
#197 = CARTESIAN_POINT('',(0.,190.));
#198 = VECTOR('',#199,1.);
#199 = DIRECTION('',(1.,0.));
#200 = ( GEOMETRIC_REPRESENTATION_CONTEXT(2) 
PARAMETRIC_REPRESENTATION_CONTEXT() REPRESENTATION_CONTEXT('2D SPACE',''
  ) );
#201 = PCURVE('',#202,#207);
#202 = PLANE('',#203);
#203 = AXIS2_PLACEMENT_3D('',#204,#205,#206);
#204 = CARTESIAN_POINT('',(95.,-55.,-22.5));
#205 = DIRECTION('',(1.,0.,0.));
#206 = DIRECTION('',(0.,0.,1.));
#207 = DEFINITIONAL_REPRESENTATION('',(#208),#212);
#208 = LINE('',#209,#210);
#209 = CARTESIAN_POINT('',(0.,0.));
#210 = VECTOR('',#211,1.);
#211 = DIRECTION('',(1.,0.));
#212 = ( GEOMETRIC_REPRESENTATION_CONTEXT(2) 
PARAMETRIC_REPRESENTATION_CONTEXT() REPRESENTATION_CONTEXT('2D SPACE',''
  ) );
#213 = ADVANCED_FACE('',(#214),#126,.T.);
#214 = FACE_BOUND('',#215,.T.);
#215 = EDGE_LOOP('',(#216,#217,#218,#241));
#216 = ORIENTED_EDGE('',*,*,#112,.F.);
#217 = ORIENTED_EDGE('',*,*,#165,.T.);
#218 = ORIENTED_EDGE('',*,*,#219,.T.);
#219 = EDGE_CURVE('',#166,#220,#222,.T.);
#220 = VERTEX_POINT('',#221);
#221 = CARTESIAN_POINT('',(95.,55.,22.5));
#222 = SURFACE_CURVE('',#223,(#227,#234),.PCURVE_S1.);
#223 = LINE('',#224,#225);
#224 = CARTESIAN_POINT('',(95.,-55.,22.5));
#225 = VECTOR('',#226,1.);
#226 = DIRECTION('',(0.,1.,0.));
#227 = PCURVE('',#126,#228);
#228 = DEFINITIONAL_REPRESENTATION('',(#229),#233);
#229 = LINE('',#230,#231);
#230 = CARTESIAN_POINT('',(190.,0.));
#231 = VECTOR('',#232,1.);
#232 = DIRECTION('',(0.,1.));
#233 = ( GEOMETRIC_REPRESENTATION_CONTEXT(2) 
PARAMETRIC_REPRESENTATION_CONTEXT() REPRESENTATION_CONTEXT('2D SPACE',''
  ) );
#234 = PCURVE('',#202,#235);
#235 = DEFINITIONAL_REPRESENTATION('',(#236),#240);
#236 = LINE('',#237,#238);
#237 = CARTESIAN_POINT('',(45.,0.));
#238 = VECTOR('',#239,1.);
#239 = DIRECTION('',(0.,-1.));
#240 = ( GEOMETRIC_REPRESENTATION_CONTEXT(2) 
PARAMETRIC_REPRESENTATION_CONTEXT() REPRESENTATION_CONTEXT('2D SPACE',''
  ) );
#241 = ORIENTED_EDGE('',*,*,#242,.F.);
#242 = EDGE_CURVE('',#85,#220,#243,.T.);
#243 = SURFACE_CURVE('',#244,(#248,#255),.PCURVE_S1.);
#244 = LINE('',#245,#246);
#245 = CARTESIAN_POINT('',(-95.,55.,22.5));
#246 = VECTOR('',#247,1.);
#247 = DIRECTION('',(1.,0.,0.));
#248 = PCURVE('',#126,#249);
#249 = DEFINITIONAL_REPRESENTATION('',(#250),#254);
#250 = LINE('',#251,#252);
#251 = CARTESIAN_POINT('',(0.,110.));
#252 = VECTOR('',#253,1.);
#253 = DIRECTION('',(1.,0.));
#254 = ( GEOMETRIC_REPRESENTATION_CONTEXT(2) 
PARAMETRIC_REPRESENTATION_CONTEXT() REPRESENTATION_CONTEXT('2D SPACE',''
  ) );
#255 = PCURVE('',#100,#256);
#256 = DEFINITIONAL_REPRESENTATION('',(#257),#261);
#257 = LINE('',#258,#259);
#258 = CARTESIAN_POINT('',(45.,0.));
#259 = VECTOR('',#260,1.);
#260 = DIRECTION('',(0.,1.));
#261 = ( GEOMETRIC_REPRESENTATION_CONTEXT(2) 
PARAMETRIC_REPRESENTATION_CONTEXT() REPRESENTATION_CONTEXT('2D SPACE',''
  ) );
#262 = ADVANCED_FACE('',(#263),#100,.T.);
#263 = FACE_BOUND('',#264,.T.);
#264 = EDGE_LOOP('',(#265,#288,#289,#290));
#265 = ORIENTED_EDGE('',*,*,#266,.F.);
#266 = EDGE_CURVE('',#57,#267,#269,.T.);
#267 = VERTEX_POINT('',#268);
#268 = CARTESIAN_POINT('',(95.,55.,-22.5));
#269 = SURFACE_CURVE('',#270,(#274,#281),.PCURVE_S1.);
#270 = LINE('',#271,#272);
#271 = CARTESIAN_POINT('',(-95.,55.,-22.5));
#272 = VECTOR('',#273,1.);
#273 = DIRECTION('',(1.,0.,0.));
#274 = PCURVE('',#100,#275);
#275 = DEFINITIONAL_REPRESENTATION('',(#276),#280);
#276 = LINE('',#277,#278);
#277 = CARTESIAN_POINT('',(0.,0.));
#278 = VECTOR('',#279,1.);
#279 = DIRECTION('',(0.,1.));
#280 = ( GEOMETRIC_REPRESENTATION_CONTEXT(2) 
PARAMETRIC_REPRESENTATION_CONTEXT() REPRESENTATION_CONTEXT('2D SPACE',''
  ) );
#281 = PCURVE('',#72,#282);
#282 = DEFINITIONAL_REPRESENTATION('',(#283),#287);
#283 = LINE('',#284,#285);
#284 = CARTESIAN_POINT('',(0.,110.));
#285 = VECTOR('',#286,1.);
#286 = DIRECTION('',(1.,0.));
#287 = ( GEOMETRIC_REPRESENTATION_CONTEXT(2) 
PARAMETRIC_REPRESENTATION_CONTEXT() REPRESENTATION_CONTEXT('2D SPACE',''
  ) );
#288 = ORIENTED_EDGE('',*,*,#84,.T.);
#289 = ORIENTED_EDGE('',*,*,#242,.T.);
#290 = ORIENTED_EDGE('',*,*,#291,.F.);
#291 = EDGE_CURVE('',#267,#220,#292,.T.);
#292 = SURFACE_CURVE('',#293,(#297,#304),.PCURVE_S1.);
#293 = LINE('',#294,#295);
#294 = CARTESIAN_POINT('',(95.,55.,-22.5));
#295 = VECTOR('',#296,1.);
#296 = DIRECTION('',(0.,0.,1.));
#297 = PCURVE('',#100,#298);
#298 = DEFINITIONAL_REPRESENTATION('',(#299),#303);
#299 = LINE('',#300,#301);
#300 = CARTESIAN_POINT('',(0.,190.));
#301 = VECTOR('',#302,1.);
#302 = DIRECTION('',(1.,0.));
#303 = ( GEOMETRIC_REPRESENTATION_CONTEXT(2) 
PARAMETRIC_REPRESENTATION_CONTEXT() REPRESENTATION_CONTEXT('2D SPACE',''
  ) );
#304 = PCURVE('',#202,#305);
#305 = DEFINITIONAL_REPRESENTATION('',(#306),#310);
#306 = LINE('',#307,#308);
#307 = CARTESIAN_POINT('',(0.,-110.));
#308 = VECTOR('',#309,1.);
#309 = DIRECTION('',(1.,0.));
#310 = ( GEOMETRIC_REPRESENTATION_CONTEXT(2) 
PARAMETRIC_REPRESENTATION_CONTEXT() REPRESENTATION_CONTEXT('2D SPACE',''
  ) );
#311 = ADVANCED_FACE('',(#312),#72,.F.);
#312 = FACE_BOUND('',#313,.F.);
#313 = EDGE_LOOP('',(#314,#315,#316,#337));
#314 = ORIENTED_EDGE('',*,*,#56,.F.);
#315 = ORIENTED_EDGE('',*,*,#141,.T.);
#316 = ORIENTED_EDGE('',*,*,#317,.T.);
#317 = EDGE_CURVE('',#142,#267,#318,.T.);
#318 = SURFACE_CURVE('',#319,(#323,#330),.PCURVE_S1.);
#319 = LINE('',#320,#321);
#320 = CARTESIAN_POINT('',(95.,-55.,-22.5));
#321 = VECTOR('',#322,1.);
#322 = DIRECTION('',(0.,1.,0.));
#323 = PCURVE('',#72,#324);
#324 = DEFINITIONAL_REPRESENTATION('',(#325),#329);
#325 = LINE('',#326,#327);
#326 = CARTESIAN_POINT('',(190.,0.));
#327 = VECTOR('',#328,1.);
#328 = DIRECTION('',(0.,1.));
#329 = ( GEOMETRIC_REPRESENTATION_CONTEXT(2) 
PARAMETRIC_REPRESENTATION_CONTEXT() REPRESENTATION_CONTEXT('2D SPACE',''
  ) );
#330 = PCURVE('',#202,#331);
#331 = DEFINITIONAL_REPRESENTATION('',(#332),#336);
#332 = LINE('',#333,#334);
#333 = CARTESIAN_POINT('',(0.,0.));
#334 = VECTOR('',#335,1.);
#335 = DIRECTION('',(0.,-1.));
#336 = ( GEOMETRIC_REPRESENTATION_CONTEXT(2) 
PARAMETRIC_REPRESENTATION_CONTEXT() REPRESENTATION_CONTEXT('2D SPACE',''
  ) );
#337 = ORIENTED_EDGE('',*,*,#266,.F.);
#338 = ADVANCED_FACE('',(#339),#202,.T.);
#339 = FACE_BOUND('',#340,.T.);
#340 = EDGE_LOOP('',(#341,#342,#343,#344));
#341 = ORIENTED_EDGE('',*,*,#188,.F.);
#342 = ORIENTED_EDGE('',*,*,#317,.T.);
#343 = ORIENTED_EDGE('',*,*,#291,.T.);
#344 = ORIENTED_EDGE('',*,*,#219,.F.);
#345 = ORIENTED_CLOSED_SHELL('',*,#346,.F.);
#346 = CLOSED_SHELL('',(#347,#467,#757,#806,#1069,#1096,#1103,#1107,
    #1111,#1115));
#347 = ADVANCED_FACE('',(#348),#362,.F.);
#348 = FACE_BOUND('',#349,.F.);
#349 = EDGE_LOOP('',(#350,#385,#413,#441));
#350 = ORIENTED_EDGE('',*,*,#351,.F.);
#351 = EDGE_CURVE('',#352,#354,#356,.T.);
#352 = VERTEX_POINT('',#353);
#353 = CARTESIAN_POINT('',(-85.,-45.,-14.));
#354 = VERTEX_POINT('',#355);
#355 = CARTESIAN_POINT('',(-85.,-45.,14.));
#356 = SURFACE_CURVE('',#357,(#361,#373),.PCURVE_S1.);
#357 = LINE('',#358,#359);
#358 = CARTESIAN_POINT('',(-85.,-45.,-14.));
#359 = VECTOR('',#360,1.);
#360 = DIRECTION('',(0.,0.,1.));
#361 = PCURVE('',#362,#367);
#362 = PLANE('',#363);
#363 = AXIS2_PLACEMENT_3D('',#364,#365,#366);
#364 = CARTESIAN_POINT('',(-85.,-45.,-14.));
#365 = DIRECTION('',(1.,0.,0.));
#366 = DIRECTION('',(0.,0.,1.));
#367 = DEFINITIONAL_REPRESENTATION('',(#368),#372);
#368 = LINE('',#369,#370);
#369 = CARTESIAN_POINT('',(0.,0.));
#370 = VECTOR('',#371,1.);
#371 = DIRECTION('',(1.,0.));
#372 = ( GEOMETRIC_REPRESENTATION_CONTEXT(2) 
PARAMETRIC_REPRESENTATION_CONTEXT() REPRESENTATION_CONTEXT('2D SPACE',''
  ) );
#373 = PCURVE('',#374,#379);
#374 = PLANE('',#375);
#375 = AXIS2_PLACEMENT_3D('',#376,#377,#378);
#376 = CARTESIAN_POINT('',(-85.,-45.,-14.));
#377 = DIRECTION('',(0.,1.,0.));
#378 = DIRECTION('',(0.,0.,1.));
#379 = DEFINITIONAL_REPRESENTATION('',(#380),#384);
#380 = LINE('',#381,#382);
#381 = CARTESIAN_POINT('',(0.,0.));
#382 = VECTOR('',#383,1.);
#383 = DIRECTION('',(1.,0.));
#384 = ( GEOMETRIC_REPRESENTATION_CONTEXT(2) 
PARAMETRIC_REPRESENTATION_CONTEXT() REPRESENTATION_CONTEXT('2D SPACE',''
  ) );
#385 = ORIENTED_EDGE('',*,*,#386,.T.);
#386 = EDGE_CURVE('',#352,#387,#389,.T.);
#387 = VERTEX_POINT('',#388);
#388 = CARTESIAN_POINT('',(-85.,45.,-14.));
#389 = SURFACE_CURVE('',#390,(#394,#401),.PCURVE_S1.);
#390 = LINE('',#391,#392);
#391 = CARTESIAN_POINT('',(-85.,-45.,-14.));
#392 = VECTOR('',#393,1.);
#393 = DIRECTION('',(0.,1.,0.));
#394 = PCURVE('',#362,#395);
#395 = DEFINITIONAL_REPRESENTATION('',(#396),#400);
#396 = LINE('',#397,#398);
#397 = CARTESIAN_POINT('',(0.,0.));
#398 = VECTOR('',#399,1.);
#399 = DIRECTION('',(0.,-1.));
#400 = ( GEOMETRIC_REPRESENTATION_CONTEXT(2) 
PARAMETRIC_REPRESENTATION_CONTEXT() REPRESENTATION_CONTEXT('2D SPACE',''
  ) );
#401 = PCURVE('',#402,#407);
#402 = PLANE('',#403);
#403 = AXIS2_PLACEMENT_3D('',#404,#405,#406);
#404 = CARTESIAN_POINT('',(-85.,-45.,-14.));
#405 = DIRECTION('',(0.,0.,1.));
#406 = DIRECTION('',(1.,0.,0.));
#407 = DEFINITIONAL_REPRESENTATION('',(#408),#412);
#408 = LINE('',#409,#410);
#409 = CARTESIAN_POINT('',(0.,0.));
#410 = VECTOR('',#411,1.);
#411 = DIRECTION('',(0.,1.));
#412 = ( GEOMETRIC_REPRESENTATION_CONTEXT(2) 
PARAMETRIC_REPRESENTATION_CONTEXT() REPRESENTATION_CONTEXT('2D SPACE',''
  ) );
#413 = ORIENTED_EDGE('',*,*,#414,.T.);
#414 = EDGE_CURVE('',#387,#415,#417,.T.);
#415 = VERTEX_POINT('',#416);
#416 = CARTESIAN_POINT('',(-85.,45.,14.));
#417 = SURFACE_CURVE('',#418,(#422,#429),.PCURVE_S1.);
#418 = LINE('',#419,#420);
#419 = CARTESIAN_POINT('',(-85.,45.,-14.));
#420 = VECTOR('',#421,1.);
#421 = DIRECTION('',(0.,0.,1.));
#422 = PCURVE('',#362,#423);
#423 = DEFINITIONAL_REPRESENTATION('',(#424),#428);
#424 = LINE('',#425,#426);
#425 = CARTESIAN_POINT('',(0.,-90.));
#426 = VECTOR('',#427,1.);
#427 = DIRECTION('',(1.,0.));
#428 = ( GEOMETRIC_REPRESENTATION_CONTEXT(2) 
PARAMETRIC_REPRESENTATION_CONTEXT() REPRESENTATION_CONTEXT('2D SPACE',''
  ) );
#429 = PCURVE('',#430,#435);
#430 = PLANE('',#431);
#431 = AXIS2_PLACEMENT_3D('',#432,#433,#434);
#432 = CARTESIAN_POINT('',(-85.,45.,-14.));
#433 = DIRECTION('',(0.,1.,0.));
#434 = DIRECTION('',(0.,0.,1.));
#435 = DEFINITIONAL_REPRESENTATION('',(#436),#440);
#436 = LINE('',#437,#438);
#437 = CARTESIAN_POINT('',(0.,0.));
#438 = VECTOR('',#439,1.);
#439 = DIRECTION('',(1.,0.));
#440 = ( GEOMETRIC_REPRESENTATION_CONTEXT(2) 
PARAMETRIC_REPRESENTATION_CONTEXT() REPRESENTATION_CONTEXT('2D SPACE',''
  ) );
#441 = ORIENTED_EDGE('',*,*,#442,.F.);
#442 = EDGE_CURVE('',#354,#415,#443,.T.);
#443 = SURFACE_CURVE('',#444,(#448,#455),.PCURVE_S1.);
#444 = LINE('',#445,#446);
#445 = CARTESIAN_POINT('',(-85.,-45.,14.));
#446 = VECTOR('',#447,1.);
#447 = DIRECTION('',(0.,1.,0.));
#448 = PCURVE('',#362,#449);
#449 = DEFINITIONAL_REPRESENTATION('',(#450),#454);
#450 = LINE('',#451,#452);
#451 = CARTESIAN_POINT('',(28.,0.));
#452 = VECTOR('',#453,1.);
#453 = DIRECTION('',(0.,-1.));
#454 = ( GEOMETRIC_REPRESENTATION_CONTEXT(2) 
PARAMETRIC_REPRESENTATION_CONTEXT() REPRESENTATION_CONTEXT('2D SPACE',''
  ) );
#455 = PCURVE('',#456,#461);
#456 = PLANE('',#457);
#457 = AXIS2_PLACEMENT_3D('',#458,#459,#460);
#458 = CARTESIAN_POINT('',(-85.,-45.,14.));
#459 = DIRECTION('',(0.,0.,1.));
#460 = DIRECTION('',(1.,0.,0.));
#461 = DEFINITIONAL_REPRESENTATION('',(#462),#466);
#462 = LINE('',#463,#464);
#463 = CARTESIAN_POINT('',(0.,0.));
#464 = VECTOR('',#465,1.);
#465 = DIRECTION('',(0.,1.));
#466 = ( GEOMETRIC_REPRESENTATION_CONTEXT(2) 
PARAMETRIC_REPRESENTATION_CONTEXT() REPRESENTATION_CONTEXT('2D SPACE',''
  ) );
#467 = ADVANCED_FACE('',(#468,#543,#650),#374,.F.);
#468 = FACE_BOUND('',#469,.F.);
#469 = EDGE_LOOP('',(#470,#493,#494,#517));
#470 = ORIENTED_EDGE('',*,*,#471,.F.);
#471 = EDGE_CURVE('',#352,#472,#474,.T.);
#472 = VERTEX_POINT('',#473);
#473 = CARTESIAN_POINT('',(85.,-45.,-14.));
#474 = SURFACE_CURVE('',#475,(#479,#486),.PCURVE_S1.);
#475 = LINE('',#476,#477);
#476 = CARTESIAN_POINT('',(-85.,-45.,-14.));
#477 = VECTOR('',#478,1.);
#478 = DIRECTION('',(1.,0.,0.));
#479 = PCURVE('',#374,#480);
#480 = DEFINITIONAL_REPRESENTATION('',(#481),#485);
#481 = LINE('',#482,#483);
#482 = CARTESIAN_POINT('',(0.,0.));
#483 = VECTOR('',#484,1.);
#484 = DIRECTION('',(0.,1.));
#485 = ( GEOMETRIC_REPRESENTATION_CONTEXT(2) 
PARAMETRIC_REPRESENTATION_CONTEXT() REPRESENTATION_CONTEXT('2D SPACE',''
  ) );
#486 = PCURVE('',#402,#487);
#487 = DEFINITIONAL_REPRESENTATION('',(#488),#492);
#488 = LINE('',#489,#490);
#489 = CARTESIAN_POINT('',(0.,0.));
#490 = VECTOR('',#491,1.);
#491 = DIRECTION('',(1.,0.));
#492 = ( GEOMETRIC_REPRESENTATION_CONTEXT(2) 
PARAMETRIC_REPRESENTATION_CONTEXT() REPRESENTATION_CONTEXT('2D SPACE',''
  ) );
#493 = ORIENTED_EDGE('',*,*,#351,.T.);
#494 = ORIENTED_EDGE('',*,*,#495,.T.);
#495 = EDGE_CURVE('',#354,#496,#498,.T.);
#496 = VERTEX_POINT('',#497);
#497 = CARTESIAN_POINT('',(85.,-45.,14.));
#498 = SURFACE_CURVE('',#499,(#503,#510),.PCURVE_S1.);
#499 = LINE('',#500,#501);
#500 = CARTESIAN_POINT('',(-85.,-45.,14.));
#501 = VECTOR('',#502,1.);
#502 = DIRECTION('',(1.,0.,0.));
#503 = PCURVE('',#374,#504);
#504 = DEFINITIONAL_REPRESENTATION('',(#505),#509);
#505 = LINE('',#506,#507);
#506 = CARTESIAN_POINT('',(28.,0.));
#507 = VECTOR('',#508,1.);
#508 = DIRECTION('',(0.,1.));
#509 = ( GEOMETRIC_REPRESENTATION_CONTEXT(2) 
PARAMETRIC_REPRESENTATION_CONTEXT() REPRESENTATION_CONTEXT('2D SPACE',''
  ) );
#510 = PCURVE('',#456,#511);
#511 = DEFINITIONAL_REPRESENTATION('',(#512),#516);
#512 = LINE('',#513,#514);
#513 = CARTESIAN_POINT('',(0.,0.));
#514 = VECTOR('',#515,1.);
#515 = DIRECTION('',(1.,0.));
#516 = ( GEOMETRIC_REPRESENTATION_CONTEXT(2) 
PARAMETRIC_REPRESENTATION_CONTEXT() REPRESENTATION_CONTEXT('2D SPACE',''
  ) );
#517 = ORIENTED_EDGE('',*,*,#518,.F.);
#518 = EDGE_CURVE('',#472,#496,#519,.T.);
#519 = SURFACE_CURVE('',#520,(#524,#531),.PCURVE_S1.);
#520 = LINE('',#521,#522);
#521 = CARTESIAN_POINT('',(85.,-45.,-14.));
#522 = VECTOR('',#523,1.);
#523 = DIRECTION('',(0.,0.,1.));
#524 = PCURVE('',#374,#525);
#525 = DEFINITIONAL_REPRESENTATION('',(#526),#530);
#526 = LINE('',#527,#528);
#527 = CARTESIAN_POINT('',(0.,170.));
#528 = VECTOR('',#529,1.);
#529 = DIRECTION('',(1.,0.));
#530 = ( GEOMETRIC_REPRESENTATION_CONTEXT(2) 
PARAMETRIC_REPRESENTATION_CONTEXT() REPRESENTATION_CONTEXT('2D SPACE',''
  ) );
#531 = PCURVE('',#532,#537);
#532 = PLANE('',#533);
#533 = AXIS2_PLACEMENT_3D('',#534,#535,#536);
#534 = CARTESIAN_POINT('',(85.,-45.,-14.));
#535 = DIRECTION('',(1.,0.,0.));
#536 = DIRECTION('',(0.,0.,1.));
#537 = DEFINITIONAL_REPRESENTATION('',(#538),#542);
#538 = LINE('',#539,#540);
#539 = CARTESIAN_POINT('',(0.,0.));
#540 = VECTOR('',#541,1.);
#541 = DIRECTION('',(1.,0.));
#542 = ( GEOMETRIC_REPRESENTATION_CONTEXT(2) 
PARAMETRIC_REPRESENTATION_CONTEXT() REPRESENTATION_CONTEXT('2D SPACE',''
  ) );
#543 = FACE_BOUND('',#544,.F.);
#544 = EDGE_LOOP('',(#545));
#545 = ORIENTED_EDGE('',*,*,#546,.F.);
#546 = EDGE_CURVE('',#547,#547,#549,.T.);
#547 = VERTEX_POINT('',#548);
#548 = CARTESIAN_POINT('',(-35.,-45.,6.057347078051));
#549 = SURFACE_CURVE('',#550,(#555,#562),.PCURVE_S1.);
#550 = CIRCLE('',#551,6.057347078051);
#551 = AXIS2_PLACEMENT_3D('',#552,#553,#554);
#552 = CARTESIAN_POINT('',(-35.,-45.,0.));
#553 = DIRECTION('',(0.,1.,0.));
#554 = DIRECTION('',(0.,-0.,1.));
#555 = PCURVE('',#374,#556);
#556 = DEFINITIONAL_REPRESENTATION('',(#557),#561);
#557 = CIRCLE('',#558,6.057347078051);
#558 = AXIS2_PLACEMENT_2D('',#559,#560);
#559 = CARTESIAN_POINT('',(14.,50.));
#560 = DIRECTION('',(1.,0.));
#561 = ( GEOMETRIC_REPRESENTATION_CONTEXT(2) 
PARAMETRIC_REPRESENTATION_CONTEXT() REPRESENTATION_CONTEXT('2D SPACE',''
  ) );
#562 = PCURVE('',#563,#568);
#563 = SPHERICAL_SURFACE('',#564,12.);
#564 = AXIS2_PLACEMENT_3D('',#565,#566,#567);
#565 = CARTESIAN_POINT('',(-35.,-34.64101615137,0.));
#566 = DIRECTION('',(0.,0.,1.));
#567 = DIRECTION('',(1.,0.,0.));
#568 = DEFINITIONAL_REPRESENTATION('',(#569),#649);
#569 = B_SPLINE_CURVE_WITH_KNOTS('',8,(#570,#571,#572,#573,#574,#575,
    #576,#577,#578,#579,#580,#581,#582,#583,#584,#585,#586,#587,#588,
    #589,#590,#591,#592,#593,#594,#595,#596,#597,#598,#599,#600,#601,
    #602,#603,#604,#605,#606,#607,#608,#609,#610,#611,#612,#613,#614,
    #615,#616,#617,#618,#619,#620,#621,#622,#623,#624,#625,#626,#627,
    #628,#629,#630,#631,#632,#633,#634,#635,#636,#637,#638,#639,#640,
    #641,#642,#643,#644,#645,#646,#647,#648),.UNSPECIFIED.,.T.,.F.,(9,7,
    7,7,7,7,7,7,7,7,7,9),(0.,0.392699081699,1.129009859884,
    1.773281790796,2.337019730344,2.830290427448,3.261902287415,
    4.017223042356,4.583713608562,5.433449457871,5.858317382525,
    6.28318530718),.UNSPECIFIED.);
#570 = CARTESIAN_POINT('',(4.712388980385,0.529125847474));
#571 = CARTESIAN_POINT('',(4.741092503214,0.529125847474));
#572 = CARTESIAN_POINT('',(4.769795973814,0.52751560828));
#573 = CARTESIAN_POINT('',(4.798322197074,0.524295013027));
#574 = CARTESIAN_POINT('',(4.82649318051,0.519481021423));
#575 = CARTESIAN_POINT('',(4.854140538304,0.513107111516));
#576 = CARTESIAN_POINT('',(4.881112835357,0.505221613016));
#577 = CARTESIAN_POINT('',(4.90727987138,0.495884932171));
#578 = CARTESIAN_POINT('',(4.979885218089,0.465067048267));
#579 = CARTESIAN_POINT('',(5.024026611368,0.440107900104));
#580 = CARTESIAN_POINT('',(5.06424694517,0.410741121188));
#581 = CARTESIAN_POINT('',(5.100106682581,0.377526468303));
#582 = CARTESIAN_POINT('',(5.131458324271,0.341054407443));
#583 = CARTESIAN_POINT('',(5.158294156485,0.30188453109));
#584 = CARTESIAN_POINT('',(5.180670097482,0.260544717681));
#585 = CARTESIAN_POINT('',(5.214392364465,0.179896551142));
#586 = CARTESIAN_POINT('',(5.22676775535,0.140980209491));
#587 = CARTESIAN_POINT('',(5.235827922059,0.101116705333));
#588 = CARTESIAN_POINT('',(5.241626884549,6.062190243991E-02));
#589 = CARTESIAN_POINT('',(5.244202131824,1.979713181826E-02));
#590 = CARTESIAN_POINT('',(5.243564138647,-2.106282178981E-02));
#591 = CARTESIAN_POINT('',(5.239696791969,-6.166043052019E-02));
#592 = CARTESIAN_POINT('',(5.226326579537,-0.13671314175));
#593 = CARTESIAN_POINT('',(5.21758860982,-0.171301790827));
#594 = CARTESIAN_POINT('',(5.206329247616,-0.205248355806));
#595 = CARTESIAN_POINT('',(5.192515703843,-0.238341967343));
#596 = CARTESIAN_POINT('',(5.176109523735,-0.27036160439));
#597 = CARTESIAN_POINT('',(5.1570776363,-0.301074090021));
#598 = CARTESIAN_POINT('',(5.135410185063,-0.330235500079));
#599 = CARTESIAN_POINT('',(5.089913225756,-0.381536408594));
#600 = CARTESIAN_POINT('',(5.066692524092,-0.404098069095));
#601 = CARTESIAN_POINT('',(5.041508383818,-0.425113781537));
#602 = CARTESIAN_POINT('',(5.014414090081,-0.444413775555));
#603 = CARTESIAN_POINT('',(4.985502228931,-0.461828563134));
#604 = CARTESIAN_POINT('',(4.95491885919,-0.477196473199));
#605 = CARTESIAN_POINT('',(4.922870741361,-0.490373625201));
#606 = CARTESIAN_POINT('',(4.860517863661,-0.510755792136));
#607 = CARTESIAN_POINT('',(4.830495925843,-0.518501418407));
#608 = CARTESIAN_POINT('',(4.799722993245,-0.52440333342));
#609 = CARTESIAN_POINT('',(4.768401772112,-0.528399991536));
#610 = CARTESIAN_POINT('',(4.736761225377,-0.530451128904));
#611 = CARTESIAN_POINT('',(4.705043766205,-0.530541398649));
#612 = CARTESIAN_POINT('',(4.673489417301,-0.52868130159));
#613 = CARTESIAN_POINT('',(4.587782297951,-0.518294383896));
#614 = CARTESIAN_POINT('',(4.534430215013,-0.505813826556));
#615 = CARTESIAN_POINT('',(4.483471747908,-0.487641967364));
#616 = CARTESIAN_POINT('',(4.435980244711,-0.46417344393));
#617 = CARTESIAN_POINT('',(4.392667629732,-0.435982853025));
#618 = CARTESIAN_POINT('',(4.353874922085,-0.403689835765));
#619 = CARTESIAN_POINT('',(4.319751328399,-0.36790980628));
#620 = CARTESIAN_POINT('',(4.268252726526,-0.300225549129));
#621 = CARTESIAN_POINT('',(4.248823401261,-0.269588548028));
#622 = CARTESIAN_POINT('',(4.2320472646,-0.237571491323));
#623 = CARTESIAN_POINT('',(4.21789941603,-0.204414838782));
#624 = CARTESIAN_POINT('',(4.206340700443,-0.170347490967));
#625 = CARTESIAN_POINT('',(4.197333262029,-0.135586922239));
#626 = CARTESIAN_POINT('',(4.190849321666,-0.100342059));
#627 = CARTESIAN_POINT('',(4.180908962007,-1.153416951821E-02));
#628 = CARTESIAN_POINT('',(4.180587400008,4.237679649414E-02));
#629 = CARTESIAN_POINT('',(4.185855988133,9.622031101047E-02));
#630 = CARTESIAN_POINT('',(4.196727559036,0.149319936333));
#631 = CARTESIAN_POINT('',(4.213299911304,0.200991052194));
#632 = CARTESIAN_POINT('',(4.235736093577,0.250497907216));
#633 = CARTESIAN_POINT('',(4.264175878309,0.297031171158));
#634 = CARTESIAN_POINT('',(4.315735501182,0.361100427225));
#635 = CARTESIAN_POINT('',(4.334405458209,0.381501754839));
#636 = CARTESIAN_POINT('',(4.354549755191,0.400842230826));
#637 = CARTESIAN_POINT('',(4.376147340377,0.419013845428));
#638 = CARTESIAN_POINT('',(4.399157940263,0.435907703212));
#639 = CARTESIAN_POINT('',(4.423516396601,0.45141660676));
#640 = CARTESIAN_POINT('',(4.449128586535,0.465438860486));
#641 = CARTESIAN_POINT('',(4.502609265192,0.490327728749));
#642 = CARTESIAN_POINT('',(4.530477784124,0.501194284418));
#643 = CARTESIAN_POINT('',(4.559349522546,0.51039197246));
#644 = CARTESIAN_POINT('',(4.589068685106,0.517839485864));
#645 = CARTESIAN_POINT('',(4.619449037118,0.523471110805));
#646 = CARTESIAN_POINT('',(4.650279385234,0.527241005585));
#647 = CARTESIAN_POINT('',(4.681334142869,0.529125847474));
#648 = CARTESIAN_POINT('',(4.712388980385,0.529125847474));
#649 = ( GEOMETRIC_REPRESENTATION_CONTEXT(2) 
PARAMETRIC_REPRESENTATION_CONTEXT() REPRESENTATION_CONTEXT('2D SPACE',''
  ) );
#650 = FACE_BOUND('',#651,.F.);
#651 = EDGE_LOOP('',(#652));
#652 = ORIENTED_EDGE('',*,*,#653,.F.);
#653 = EDGE_CURVE('',#654,#654,#656,.T.);
#654 = VERTEX_POINT('',#655);
#655 = CARTESIAN_POINT('',(35.,-45.,6.057347078051));
#656 = SURFACE_CURVE('',#657,(#662,#669),.PCURVE_S1.);
#657 = CIRCLE('',#658,6.057347078051);
#658 = AXIS2_PLACEMENT_3D('',#659,#660,#661);
#659 = CARTESIAN_POINT('',(35.,-45.,0.));
#660 = DIRECTION('',(0.,1.,0.));
#661 = DIRECTION('',(0.,-0.,1.));
#662 = PCURVE('',#374,#663);
#663 = DEFINITIONAL_REPRESENTATION('',(#664),#668);
#664 = CIRCLE('',#665,6.057347078051);
#665 = AXIS2_PLACEMENT_2D('',#666,#667);
#666 = CARTESIAN_POINT('',(14.,120.));
#667 = DIRECTION('',(1.,0.));
#668 = ( GEOMETRIC_REPRESENTATION_CONTEXT(2) 
PARAMETRIC_REPRESENTATION_CONTEXT() REPRESENTATION_CONTEXT('2D SPACE',''
  ) );
#669 = PCURVE('',#670,#675);
#670 = SPHERICAL_SURFACE('',#671,12.);
#671 = AXIS2_PLACEMENT_3D('',#672,#673,#674);
#672 = CARTESIAN_POINT('',(35.,-34.64101615137,0.));
#673 = DIRECTION('',(0.,0.,1.));
#674 = DIRECTION('',(1.,0.,0.));
#675 = DEFINITIONAL_REPRESENTATION('',(#676),#756);
#676 = B_SPLINE_CURVE_WITH_KNOTS('',8,(#677,#678,#679,#680,#681,#682,
    #683,#684,#685,#686,#687,#688,#689,#690,#691,#692,#693,#694,#695,
    #696,#697,#698,#699,#700,#701,#702,#703,#704,#705,#706,#707,#708,
    #709,#710,#711,#712,#713,#714,#715,#716,#717,#718,#719,#720,#721,
    #722,#723,#724,#725,#726,#727,#728,#729,#730,#731,#732,#733,#734,
    #735,#736,#737,#738,#739,#740,#741,#742,#743,#744,#745,#746,#747,
    #748,#749,#750,#751,#752,#753,#754,#755),.UNSPECIFIED.,.T.,.F.,(9,7,
    7,7,7,7,7,7,7,7,7,9),(0.,0.392699081699,1.129009859884,
    1.773281790796,2.337019730344,2.830290427448,3.261902287415,
    4.017223042356,4.583713608562,5.433449457871,5.858317382525,
    6.28318530718),.UNSPECIFIED.);
#677 = CARTESIAN_POINT('',(4.712388980385,0.529125847474));
#678 = CARTESIAN_POINT('',(4.741092503214,0.529125847474));
#679 = CARTESIAN_POINT('',(4.769795973814,0.52751560828));
#680 = CARTESIAN_POINT('',(4.798322197074,0.524295013027));
#681 = CARTESIAN_POINT('',(4.82649318051,0.519481021423));
#682 = CARTESIAN_POINT('',(4.854140538304,0.513107111516));
#683 = CARTESIAN_POINT('',(4.881112835357,0.505221613016));
#684 = CARTESIAN_POINT('',(4.90727987138,0.495884932171));
#685 = CARTESIAN_POINT('',(4.979885218089,0.465067048267));
#686 = CARTESIAN_POINT('',(5.024026611373,0.440107900104));
#687 = CARTESIAN_POINT('',(5.064246945149,0.410741121186));
#688 = CARTESIAN_POINT('',(5.10010668261,0.377526468304));
#689 = CARTESIAN_POINT('',(5.131458324257,0.341054407443));
#690 = CARTESIAN_POINT('',(5.158294156488,0.30188453109));
#691 = CARTESIAN_POINT('',(5.180670097482,0.260544717681));
#692 = CARTESIAN_POINT('',(5.214392364465,0.179896551142));
#693 = CARTESIAN_POINT('',(5.226767755351,0.140980209491));
#694 = CARTESIAN_POINT('',(5.235827922058,0.101116705333));
#695 = CARTESIAN_POINT('',(5.241626884549,6.062190243993E-02));
#696 = CARTESIAN_POINT('',(5.244202131824,1.979713181828E-02));
#697 = CARTESIAN_POINT('',(5.243564138647,-2.106282178981E-02));
#698 = CARTESIAN_POINT('',(5.239696791969,-6.166043052019E-02));
#699 = CARTESIAN_POINT('',(5.226326579537,-0.13671314175));
#700 = CARTESIAN_POINT('',(5.21758860982,-0.171301790827));
#701 = CARTESIAN_POINT('',(5.206329247616,-0.205248355806));
#702 = CARTESIAN_POINT('',(5.192515703843,-0.238341967343));
#703 = CARTESIAN_POINT('',(5.176109523735,-0.27036160439));
#704 = CARTESIAN_POINT('',(5.1570776363,-0.301074090021));
#705 = CARTESIAN_POINT('',(5.135410185063,-0.330235500079));
#706 = CARTESIAN_POINT('',(5.089913225756,-0.381536408594));
#707 = CARTESIAN_POINT('',(5.066692524092,-0.404098069095));
#708 = CARTESIAN_POINT('',(5.041508383818,-0.425113781537));
#709 = CARTESIAN_POINT('',(5.014414090081,-0.444413775555));
#710 = CARTESIAN_POINT('',(4.985502228931,-0.461828563134));
#711 = CARTESIAN_POINT('',(4.95491885919,-0.477196473199));
#712 = CARTESIAN_POINT('',(4.922870741361,-0.490373625201));
#713 = CARTESIAN_POINT('',(4.860517863661,-0.510755792136));
#714 = CARTESIAN_POINT('',(4.830495925843,-0.518501418407));
#715 = CARTESIAN_POINT('',(4.799722993245,-0.52440333342));
#716 = CARTESIAN_POINT('',(4.768401772112,-0.528399991536));
#717 = CARTESIAN_POINT('',(4.736761225377,-0.530451128904));
#718 = CARTESIAN_POINT('',(4.705043766205,-0.530541398649));
#719 = CARTESIAN_POINT('',(4.673489417301,-0.52868130159));
#720 = CARTESIAN_POINT('',(4.587782297951,-0.518294383896));
#721 = CARTESIAN_POINT('',(4.534430215013,-0.505813826556));
#722 = CARTESIAN_POINT('',(4.483471747908,-0.487641967364));
#723 = CARTESIAN_POINT('',(4.435980244711,-0.46417344393));
#724 = CARTESIAN_POINT('',(4.392667629732,-0.435982853025));
#725 = CARTESIAN_POINT('',(4.353874922085,-0.403689835765));
#726 = CARTESIAN_POINT('',(4.319751328399,-0.36790980628));
#727 = CARTESIAN_POINT('',(4.268252726526,-0.300225549129));
#728 = CARTESIAN_POINT('',(4.248823401261,-0.269588548028));
#729 = CARTESIAN_POINT('',(4.2320472646,-0.237571491323));
#730 = CARTESIAN_POINT('',(4.21789941603,-0.204414838782));
#731 = CARTESIAN_POINT('',(4.206340700443,-0.170347490967));
#732 = CARTESIAN_POINT('',(4.197333262029,-0.135586922239));
#733 = CARTESIAN_POINT('',(4.190849321666,-0.100342059));
#734 = CARTESIAN_POINT('',(4.180908962007,-1.153416951821E-02));
#735 = CARTESIAN_POINT('',(4.180587400008,4.237679649416E-02));
#736 = CARTESIAN_POINT('',(4.185855988133,9.622031101045E-02));
#737 = CARTESIAN_POINT('',(4.196727559036,0.149319936333));
#738 = CARTESIAN_POINT('',(4.213299911304,0.200991052194));
#739 = CARTESIAN_POINT('',(4.235736093577,0.250497907216));
#740 = CARTESIAN_POINT('',(4.264175878309,0.297031171158));
#741 = CARTESIAN_POINT('',(4.315735501182,0.361100427225));
#742 = CARTESIAN_POINT('',(4.334405458209,0.381501754839));
#743 = CARTESIAN_POINT('',(4.354549755191,0.400842230826));
#744 = CARTESIAN_POINT('',(4.376147340377,0.419013845428));
#745 = CARTESIAN_POINT('',(4.399157940263,0.435907703212));
#746 = CARTESIAN_POINT('',(4.423516396601,0.45141660676));
#747 = CARTESIAN_POINT('',(4.449128586535,0.465438860486));
#748 = CARTESIAN_POINT('',(4.502609265192,0.490327728749));
#749 = CARTESIAN_POINT('',(4.530477784124,0.501194284418));
#750 = CARTESIAN_POINT('',(4.559349522546,0.51039197246));
#751 = CARTESIAN_POINT('',(4.589068685106,0.517839485864));
#752 = CARTESIAN_POINT('',(4.619449037118,0.523471110805));
#753 = CARTESIAN_POINT('',(4.650279385234,0.527241005585));
#754 = CARTESIAN_POINT('',(4.681334142869,0.529125847474));
#755 = CARTESIAN_POINT('',(4.712388980385,0.529125847474));
#756 = ( GEOMETRIC_REPRESENTATION_CONTEXT(2) 
PARAMETRIC_REPRESENTATION_CONTEXT() REPRESENTATION_CONTEXT('2D SPACE',''
  ) );
#757 = ADVANCED_FACE('',(#758),#456,.T.);
#758 = FACE_BOUND('',#759,.T.);
#759 = EDGE_LOOP('',(#760,#761,#762,#785));
#760 = ORIENTED_EDGE('',*,*,#442,.F.);
#761 = ORIENTED_EDGE('',*,*,#495,.T.);
#762 = ORIENTED_EDGE('',*,*,#763,.T.);
#763 = EDGE_CURVE('',#496,#764,#766,.T.);
#764 = VERTEX_POINT('',#765);
#765 = CARTESIAN_POINT('',(85.,45.,14.));
#766 = SURFACE_CURVE('',#767,(#771,#778),.PCURVE_S1.);
#767 = LINE('',#768,#769);
#768 = CARTESIAN_POINT('',(85.,-45.,14.));
#769 = VECTOR('',#770,1.);
#770 = DIRECTION('',(0.,1.,0.));
#771 = PCURVE('',#456,#772);
#772 = DEFINITIONAL_REPRESENTATION('',(#773),#777);
#773 = LINE('',#774,#775);
#774 = CARTESIAN_POINT('',(170.,0.));
#775 = VECTOR('',#776,1.);
#776 = DIRECTION('',(0.,1.));
#777 = ( GEOMETRIC_REPRESENTATION_CONTEXT(2) 
PARAMETRIC_REPRESENTATION_CONTEXT() REPRESENTATION_CONTEXT('2D SPACE',''
  ) );
#778 = PCURVE('',#532,#779);
#779 = DEFINITIONAL_REPRESENTATION('',(#780),#784);
#780 = LINE('',#781,#782);
#781 = CARTESIAN_POINT('',(28.,0.));
#782 = VECTOR('',#783,1.);
#783 = DIRECTION('',(0.,-1.));
#784 = ( GEOMETRIC_REPRESENTATION_CONTEXT(2) 
PARAMETRIC_REPRESENTATION_CONTEXT() REPRESENTATION_CONTEXT('2D SPACE',''
  ) );
#785 = ORIENTED_EDGE('',*,*,#786,.F.);
#786 = EDGE_CURVE('',#415,#764,#787,.T.);
#787 = SURFACE_CURVE('',#788,(#792,#799),.PCURVE_S1.);
#788 = LINE('',#789,#790);
#789 = CARTESIAN_POINT('',(-85.,45.,14.));
#790 = VECTOR('',#791,1.);
#791 = DIRECTION('',(1.,0.,0.));
#792 = PCURVE('',#456,#793);
#793 = DEFINITIONAL_REPRESENTATION('',(#794),#798);
#794 = LINE('',#795,#796);
#795 = CARTESIAN_POINT('',(0.,90.));
#796 = VECTOR('',#797,1.);
#797 = DIRECTION('',(1.,0.));
#798 = ( GEOMETRIC_REPRESENTATION_CONTEXT(2) 
PARAMETRIC_REPRESENTATION_CONTEXT() REPRESENTATION_CONTEXT('2D SPACE',''
  ) );
#799 = PCURVE('',#430,#800);
#800 = DEFINITIONAL_REPRESENTATION('',(#801),#805);
#801 = LINE('',#802,#803);
#802 = CARTESIAN_POINT('',(28.,0.));
#803 = VECTOR('',#804,1.);
#804 = DIRECTION('',(0.,1.));
#805 = ( GEOMETRIC_REPRESENTATION_CONTEXT(2) 
PARAMETRIC_REPRESENTATION_CONTEXT() REPRESENTATION_CONTEXT('2D SPACE',''
  ) );
#806 = ADVANCED_FACE('',(#807,#855,#962),#430,.T.);
#807 = FACE_BOUND('',#808,.T.);
#808 = EDGE_LOOP('',(#809,#832,#833,#834));
#809 = ORIENTED_EDGE('',*,*,#810,.F.);
#810 = EDGE_CURVE('',#387,#811,#813,.T.);
#811 = VERTEX_POINT('',#812);
#812 = CARTESIAN_POINT('',(85.,45.,-14.));
#813 = SURFACE_CURVE('',#814,(#818,#825),.PCURVE_S1.);
#814 = LINE('',#815,#816);
#815 = CARTESIAN_POINT('',(-85.,45.,-14.));
#816 = VECTOR('',#817,1.);
#817 = DIRECTION('',(1.,0.,0.));
#818 = PCURVE('',#430,#819);
#819 = DEFINITIONAL_REPRESENTATION('',(#820),#824);
#820 = LINE('',#821,#822);
#821 = CARTESIAN_POINT('',(0.,0.));
#822 = VECTOR('',#823,1.);
#823 = DIRECTION('',(0.,1.));
#824 = ( GEOMETRIC_REPRESENTATION_CONTEXT(2) 
PARAMETRIC_REPRESENTATION_CONTEXT() REPRESENTATION_CONTEXT('2D SPACE',''
  ) );
#825 = PCURVE('',#402,#826);
#826 = DEFINITIONAL_REPRESENTATION('',(#827),#831);
#827 = LINE('',#828,#829);
#828 = CARTESIAN_POINT('',(0.,90.));
#829 = VECTOR('',#830,1.);
#830 = DIRECTION('',(1.,0.));
#831 = ( GEOMETRIC_REPRESENTATION_CONTEXT(2) 
PARAMETRIC_REPRESENTATION_CONTEXT() REPRESENTATION_CONTEXT('2D SPACE',''
  ) );
#832 = ORIENTED_EDGE('',*,*,#414,.T.);
#833 = ORIENTED_EDGE('',*,*,#786,.T.);
#834 = ORIENTED_EDGE('',*,*,#835,.F.);
#835 = EDGE_CURVE('',#811,#764,#836,.T.);
#836 = SURFACE_CURVE('',#837,(#841,#848),.PCURVE_S1.);
#837 = LINE('',#838,#839);
#838 = CARTESIAN_POINT('',(85.,45.,-14.));
#839 = VECTOR('',#840,1.);
#840 = DIRECTION('',(0.,0.,1.));
#841 = PCURVE('',#430,#842);
#842 = DEFINITIONAL_REPRESENTATION('',(#843),#847);
#843 = LINE('',#844,#845);
#844 = CARTESIAN_POINT('',(0.,170.));
#845 = VECTOR('',#846,1.);
#846 = DIRECTION('',(1.,0.));
#847 = ( GEOMETRIC_REPRESENTATION_CONTEXT(2) 
PARAMETRIC_REPRESENTATION_CONTEXT() REPRESENTATION_CONTEXT('2D SPACE',''
  ) );
#848 = PCURVE('',#532,#849);
#849 = DEFINITIONAL_REPRESENTATION('',(#850),#854);
#850 = LINE('',#851,#852);
#851 = CARTESIAN_POINT('',(0.,-90.));
#852 = VECTOR('',#853,1.);
#853 = DIRECTION('',(1.,0.));
#854 = ( GEOMETRIC_REPRESENTATION_CONTEXT(2) 
PARAMETRIC_REPRESENTATION_CONTEXT() REPRESENTATION_CONTEXT('2D SPACE',''
  ) );
#855 = FACE_BOUND('',#856,.T.);
#856 = EDGE_LOOP('',(#857));
#857 = ORIENTED_EDGE('',*,*,#858,.F.);
#858 = EDGE_CURVE('',#859,#859,#861,.T.);
#859 = VERTEX_POINT('',#860);
#860 = CARTESIAN_POINT('',(-35.,45.,6.057347078052));
#861 = SURFACE_CURVE('',#862,(#867,#874),.PCURVE_S1.);
#862 = CIRCLE('',#863,6.057347078052);
#863 = AXIS2_PLACEMENT_3D('',#864,#865,#866);
#864 = CARTESIAN_POINT('',(-35.,45.,0.));
#865 = DIRECTION('',(0.,1.,0.));
#866 = DIRECTION('',(0.,-0.,1.));
#867 = PCURVE('',#430,#868);
#868 = DEFINITIONAL_REPRESENTATION('',(#869),#873);
#869 = CIRCLE('',#870,6.057347078052);
#870 = AXIS2_PLACEMENT_2D('',#871,#872);
#871 = CARTESIAN_POINT('',(14.,50.));
#872 = DIRECTION('',(1.,0.));
#873 = ( GEOMETRIC_REPRESENTATION_CONTEXT(2) 
PARAMETRIC_REPRESENTATION_CONTEXT() REPRESENTATION_CONTEXT('2D SPACE',''
  ) );
#874 = PCURVE('',#875,#880);
#875 = SPHERICAL_SURFACE('',#876,12.);
#876 = AXIS2_PLACEMENT_3D('',#877,#878,#879);
#877 = CARTESIAN_POINT('',(-35.,34.641016151378,0.));
#878 = DIRECTION('',(0.,0.,1.));
#879 = DIRECTION('',(1.,0.,0.));
#880 = DEFINITIONAL_REPRESENTATION('',(#881),#961);
#881 = B_SPLINE_CURVE_WITH_KNOTS('',8,(#882,#883,#884,#885,#886,#887,
    #888,#889,#890,#891,#892,#893,#894,#895,#896,#897,#898,#899,#900,
    #901,#902,#903,#904,#905,#906,#907,#908,#909,#910,#911,#912,#913,
    #914,#915,#916,#917,#918,#919,#920,#921,#922,#923,#924,#925,#926,
    #927,#928,#929,#930,#931,#932,#933,#934,#935,#936,#937,#938,#939,
    #940,#941,#942,#943,#944,#945,#946,#947,#948,#949,#950,#951,#952,
    #953,#954,#955,#956,#957,#958,#959,#960),.UNSPECIFIED.,.T.,.F.,(9,7,
    7,7,7,7,7,7,7,7,7,9),(0.,0.392699081699,1.129009859884,
    1.773281790796,2.337019730344,2.830290427448,3.261902287415,
    4.017223042356,4.583713608562,5.433449457871,5.858317382525,
    6.28318530718),.UNSPECIFIED.);
#882 = CARTESIAN_POINT('',(1.570796326795,0.529125847474));
#883 = CARTESIAN_POINT('',(1.542092803966,0.529125847474));
#884 = CARTESIAN_POINT('',(1.513389333365,0.52751560828));
#885 = CARTESIAN_POINT('',(1.484863110106,0.524295013027));
#886 = CARTESIAN_POINT('',(1.456692126669,0.519481021423));
#887 = CARTESIAN_POINT('',(1.429044768875,0.513107111516));
#888 = CARTESIAN_POINT('',(1.402072471823,0.505221613016));
#889 = CARTESIAN_POINT('',(1.3759054358,0.495884932171));
#890 = CARTESIAN_POINT('',(1.30330008909,0.465067048267));
#891 = CARTESIAN_POINT('',(1.259158695803,0.440107900104));
#892 = CARTESIAN_POINT('',(1.218938362011,0.410741121185));
#893 = CARTESIAN_POINT('',(1.183078624576,0.377526468306));
#894 = CARTESIAN_POINT('',(1.151726982908,0.341054407442));
#895 = CARTESIAN_POINT('',(1.124891150689,0.30188453109));
#896 = CARTESIAN_POINT('',(1.102515209698,0.260544717681));
#897 = CARTESIAN_POINT('',(1.068792942715,0.179896551142));
#898 = CARTESIAN_POINT('',(1.056417551829,0.140980209491));
#899 = CARTESIAN_POINT('',(1.047357385122,0.101116705333));
#900 = CARTESIAN_POINT('',(1.041558422632,6.062190243993E-02));
#901 = CARTESIAN_POINT('',(1.038983175355,1.979713181829E-02));
#902 = CARTESIAN_POINT('',(1.039621168532,-2.10628217898E-02));
#903 = CARTESIAN_POINT('',(1.043488515211,-6.166043052019E-02));
#904 = CARTESIAN_POINT('',(1.056858727642,-0.13671314175));
#905 = CARTESIAN_POINT('',(1.06559669736,-0.171301790827));
#906 = CARTESIAN_POINT('',(1.076856059563,-0.205248355806));
#907 = CARTESIAN_POINT('',(1.090669603337,-0.238341967343));
#908 = CARTESIAN_POINT('',(1.107075783445,-0.27036160439));
#909 = CARTESIAN_POINT('',(1.126107670879,-0.301074090021));
#910 = CARTESIAN_POINT('',(1.147775122116,-0.330235500079));
#911 = CARTESIAN_POINT('',(1.193272081424,-0.381536408594));
#912 = CARTESIAN_POINT('',(1.216492783088,-0.404098069095));
#913 = CARTESIAN_POINT('',(1.24167692336,-0.425113781537));
#914 = CARTESIAN_POINT('',(1.268771217099,-0.444413775555));
#915 = CARTESIAN_POINT('',(1.29768307825,-0.461828563134));
#916 = CARTESIAN_POINT('',(1.32826644799,-0.477196473199));
#917 = CARTESIAN_POINT('',(1.360314565818,-0.490373625201));
#918 = CARTESIAN_POINT('',(1.422667443519,-0.510755792136));
#919 = CARTESIAN_POINT('',(1.452689381336,-0.518501418407));
#920 = CARTESIAN_POINT('',(1.483462313936,-0.52440333342));
#921 = CARTESIAN_POINT('',(1.514783535069,-0.528399991536));
#922 = CARTESIAN_POINT('',(1.546424081803,-0.530451128904));
#923 = CARTESIAN_POINT('',(1.578141540975,-0.530541398649));
#924 = CARTESIAN_POINT('',(1.609695889878,-0.52868130159));
#925 = CARTESIAN_POINT('',(1.695403009228,-0.518294383896));
#926 = CARTESIAN_POINT('',(1.748755092161,-0.505813826556));
#927 = CARTESIAN_POINT('',(1.799713559275,-0.487641967362));
#928 = CARTESIAN_POINT('',(1.84720506246,-0.464173443934));
#929 = CARTESIAN_POINT('',(1.890517677449,-0.435982853023));
#930 = CARTESIAN_POINT('',(1.929310385088,-0.403689835765));
#931 = CARTESIAN_POINT('',(1.963433978781,-0.36790980628));
#932 = CARTESIAN_POINT('',(2.014932580654,-0.300225549129));
#933 = CARTESIAN_POINT('',(2.034361905918,-0.269588548028));
#934 = CARTESIAN_POINT('',(2.05113804258,-0.237571491323));
#935 = CARTESIAN_POINT('',(2.06528589115,-0.204414838782));
#936 = CARTESIAN_POINT('',(2.076844606737,-0.170347490967));
#937 = CARTESIAN_POINT('',(2.085852045151,-0.135586922239));
#938 = CARTESIAN_POINT('',(2.092335985514,-0.100342059));
#939 = CARTESIAN_POINT('',(2.102276345173,-1.153416951821E-02));
#940 = CARTESIAN_POINT('',(2.102597907171,4.237679649414E-02));
#941 = CARTESIAN_POINT('',(2.097329319048,9.622031101048E-02));
#942 = CARTESIAN_POINT('',(2.086457748144,0.149319936333));
#943 = CARTESIAN_POINT('',(2.069885395875,0.200991052194));
#944 = CARTESIAN_POINT('',(2.047449213603,0.250497907216));
#945 = CARTESIAN_POINT('',(2.019009428871,0.297031171158));
#946 = CARTESIAN_POINT('',(1.967449805997,0.361100427225));
#947 = CARTESIAN_POINT('',(1.94877984897,0.381501754839));
#948 = CARTESIAN_POINT('',(1.928635551989,0.400842230826));
#949 = CARTESIAN_POINT('',(1.907037966803,0.419013845428));
#950 = CARTESIAN_POINT('',(1.884027366916,0.435907703212));
#951 = CARTESIAN_POINT('',(1.859668910578,0.45141660676));
#952 = CARTESIAN_POINT('',(1.834056720645,0.465438860486));
#953 = CARTESIAN_POINT('',(1.780576041987,0.490327728749));
#954 = CARTESIAN_POINT('',(1.752707523056,0.501194284418));
#955 = CARTESIAN_POINT('',(1.723835784634,0.51039197246));
#956 = CARTESIAN_POINT('',(1.694116622074,0.517839485864));
#957 = CARTESIAN_POINT('',(1.663736270062,0.523471110805));
#958 = CARTESIAN_POINT('',(1.632905921946,0.527241005585));
#959 = CARTESIAN_POINT('',(1.60185116431,0.529125847474));
#960 = CARTESIAN_POINT('',(1.570796326795,0.529125847474));
#961 = ( GEOMETRIC_REPRESENTATION_CONTEXT(2) 
PARAMETRIC_REPRESENTATION_CONTEXT() REPRESENTATION_CONTEXT('2D SPACE',''
  ) );
#962 = FACE_BOUND('',#963,.T.);
#963 = EDGE_LOOP('',(#964));
#964 = ORIENTED_EDGE('',*,*,#965,.F.);
#965 = EDGE_CURVE('',#966,#966,#968,.T.);
#966 = VERTEX_POINT('',#967);
#967 = CARTESIAN_POINT('',(35.,45.,6.057347078051));
#968 = SURFACE_CURVE('',#969,(#974,#981),.PCURVE_S1.);
#969 = CIRCLE('',#970,6.057347078051);
#970 = AXIS2_PLACEMENT_3D('',#971,#972,#973);
#971 = CARTESIAN_POINT('',(35.,45.,0.));
#972 = DIRECTION('',(0.,1.,0.));
#973 = DIRECTION('',(0.,-0.,1.));
#974 = PCURVE('',#430,#975);
#975 = DEFINITIONAL_REPRESENTATION('',(#976),#980);
#976 = CIRCLE('',#977,6.057347078051);
#977 = AXIS2_PLACEMENT_2D('',#978,#979);
#978 = CARTESIAN_POINT('',(14.,120.));
#979 = DIRECTION('',(1.,0.));
#980 = ( GEOMETRIC_REPRESENTATION_CONTEXT(2) 
PARAMETRIC_REPRESENTATION_CONTEXT() REPRESENTATION_CONTEXT('2D SPACE',''
  ) );
#981 = PCURVE('',#982,#987);
#982 = SPHERICAL_SURFACE('',#983,12.);
#983 = AXIS2_PLACEMENT_3D('',#984,#985,#986);
#984 = CARTESIAN_POINT('',(35.,34.641016151378,0.));
#985 = DIRECTION('',(0.,0.,1.));
#986 = DIRECTION('',(1.,0.,0.));
#987 = DEFINITIONAL_REPRESENTATION('',(#988),#1068);
#988 = B_SPLINE_CURVE_WITH_KNOTS('',8,(#989,#990,#991,#992,#993,#994,
    #995,#996,#997,#998,#999,#1000,#1001,#1002,#1003,#1004,#1005,#1006,
    #1007,#1008,#1009,#1010,#1011,#1012,#1013,#1014,#1015,#1016,#1017,
    #1018,#1019,#1020,#1021,#1022,#1023,#1024,#1025,#1026,#1027,#1028,
    #1029,#1030,#1031,#1032,#1033,#1034,#1035,#1036,#1037,#1038,#1039,
    #1040,#1041,#1042,#1043,#1044,#1045,#1046,#1047,#1048,#1049,#1050,
    #1051,#1052,#1053,#1054,#1055,#1056,#1057,#1058,#1059,#1060,#1061,
    #1062,#1063,#1064,#1065,#1066,#1067),.UNSPECIFIED.,.T.,.F.,(9,7,7,7,
    7,7,7,7,7,7,7,9),(0.,0.392699081699,1.129009859884,1.773281790796,
    2.337019730344,2.830290427448,3.261902287415,4.017223042356,
    4.583713608562,5.433449457871,5.858317382525,6.28318530718),
  .UNSPECIFIED.);
#989 = CARTESIAN_POINT('',(1.570796326795,0.529125847474));
#990 = CARTESIAN_POINT('',(1.542092803966,0.529125847474));
#991 = CARTESIAN_POINT('',(1.513389333365,0.52751560828));
#992 = CARTESIAN_POINT('',(1.484863110106,0.524295013027));
#993 = CARTESIAN_POINT('',(1.456692126669,0.519481021423));
#994 = CARTESIAN_POINT('',(1.429044768875,0.513107111516));
#995 = CARTESIAN_POINT('',(1.402072471823,0.505221613016));
#996 = CARTESIAN_POINT('',(1.3759054358,0.495884932171));
#997 = CARTESIAN_POINT('',(1.30330008909,0.465067048267));
#998 = CARTESIAN_POINT('',(1.259158695803,0.440107900104));
#999 = CARTESIAN_POINT('',(1.218938362011,0.410741121186));
#1000 = CARTESIAN_POINT('',(1.183078624572,0.377526468304));
#1001 = CARTESIAN_POINT('',(1.151726982911,0.341054407443));
#1002 = CARTESIAN_POINT('',(1.124891150689,0.30188453109));
#1003 = CARTESIAN_POINT('',(1.102515209698,0.260544717681));
#1004 = CARTESIAN_POINT('',(1.068792942715,0.179896551142));
#1005 = CARTESIAN_POINT('',(1.056417551828,0.140980209491));
#1006 = CARTESIAN_POINT('',(1.047357385123,0.101116705333));
#1007 = CARTESIAN_POINT('',(1.041558422632,6.062190243993E-02));
#1008 = CARTESIAN_POINT('',(1.038983175355,1.979713181828E-02));
#1009 = CARTESIAN_POINT('',(1.039621168533,-2.106282178981E-02));
#1010 = CARTESIAN_POINT('',(1.043488515211,-6.166043052019E-02));
#1011 = CARTESIAN_POINT('',(1.056858727642,-0.13671314175));
#1012 = CARTESIAN_POINT('',(1.06559669736,-0.171301790827));
#1013 = CARTESIAN_POINT('',(1.076856059563,-0.205248355806));
#1014 = CARTESIAN_POINT('',(1.090669603337,-0.238341967343));
#1015 = CARTESIAN_POINT('',(1.107075783445,-0.27036160439));
#1016 = CARTESIAN_POINT('',(1.126107670879,-0.301074090021));
#1017 = CARTESIAN_POINT('',(1.147775122116,-0.330235500079));
#1018 = CARTESIAN_POINT('',(1.193272081424,-0.381536408594));
#1019 = CARTESIAN_POINT('',(1.216492783088,-0.404098069095));
#1020 = CARTESIAN_POINT('',(1.24167692336,-0.425113781537));
#1021 = CARTESIAN_POINT('',(1.268771217099,-0.444413775555));
#1022 = CARTESIAN_POINT('',(1.29768307825,-0.461828563134));
#1023 = CARTESIAN_POINT('',(1.32826644799,-0.477196473199));
#1024 = CARTESIAN_POINT('',(1.360314565818,-0.490373625201));
#1025 = CARTESIAN_POINT('',(1.422667443519,-0.510755792136));
#1026 = CARTESIAN_POINT('',(1.452689381336,-0.518501418407));
#1027 = CARTESIAN_POINT('',(1.483462313936,-0.52440333342));
#1028 = CARTESIAN_POINT('',(1.514783535068,-0.528399991536));
#1029 = CARTESIAN_POINT('',(1.546424081802,-0.530451128904));
#1030 = CARTESIAN_POINT('',(1.578141540975,-0.530541398649));
#1031 = CARTESIAN_POINT('',(1.609695889878,-0.52868130159));
#1032 = CARTESIAN_POINT('',(1.695403009228,-0.518294383896));
#1033 = CARTESIAN_POINT('',(1.748755092161,-0.505813826556));
#1034 = CARTESIAN_POINT('',(1.799713559277,-0.487641967364));
#1035 = CARTESIAN_POINT('',(1.847205062451,-0.46417344393));
#1036 = CARTESIAN_POINT('',(1.89051767745,-0.435982853025));
#1037 = CARTESIAN_POINT('',(1.929310385088,-0.403689835765));
#1038 = CARTESIAN_POINT('',(1.963433978781,-0.36790980628));
#1039 = CARTESIAN_POINT('',(2.014932580654,-0.300225549129));
#1040 = CARTESIAN_POINT('',(2.034361905918,-0.269588548028));
#1041 = CARTESIAN_POINT('',(2.05113804258,-0.237571491323));
#1042 = CARTESIAN_POINT('',(2.06528589115,-0.204414838782));
#1043 = CARTESIAN_POINT('',(2.076844606737,-0.170347490967));
#1044 = CARTESIAN_POINT('',(2.085852045151,-0.135586922239));
#1045 = CARTESIAN_POINT('',(2.092335985514,-0.100342059));
#1046 = CARTESIAN_POINT('',(2.102276345173,-1.153416951821E-02));
#1047 = CARTESIAN_POINT('',(2.10259790717,4.237679649416E-02));
#1048 = CARTESIAN_POINT('',(2.097329319049,9.622031101045E-02));
#1049 = CARTESIAN_POINT('',(2.086457748144,0.149319936333));
#1050 = CARTESIAN_POINT('',(2.069885395875,0.200991052194));
#1051 = CARTESIAN_POINT('',(2.047449213603,0.250497907216));
#1052 = CARTESIAN_POINT('',(2.019009428871,0.297031171158));
#1053 = CARTESIAN_POINT('',(1.967449805997,0.361100427225));
#1054 = CARTESIAN_POINT('',(1.94877984897,0.381501754839));
#1055 = CARTESIAN_POINT('',(1.928635551989,0.400842230826));
#1056 = CARTESIAN_POINT('',(1.907037966803,0.419013845428));
#1057 = CARTESIAN_POINT('',(1.884027366916,0.435907703212));
#1058 = CARTESIAN_POINT('',(1.859668910578,0.45141660676));
#1059 = CARTESIAN_POINT('',(1.834056720645,0.465438860486));
#1060 = CARTESIAN_POINT('',(1.780576041987,0.490327728749));
#1061 = CARTESIAN_POINT('',(1.752707523056,0.501194284418));
#1062 = CARTESIAN_POINT('',(1.723835784634,0.51039197246));
#1063 = CARTESIAN_POINT('',(1.694116622074,0.517839485864));
#1064 = CARTESIAN_POINT('',(1.663736270062,0.523471110805));
#1065 = CARTESIAN_POINT('',(1.632905921946,0.527241005585));
#1066 = CARTESIAN_POINT('',(1.60185116431,0.529125847474));
#1067 = CARTESIAN_POINT('',(1.570796326795,0.529125847474));
#1068 = ( GEOMETRIC_REPRESENTATION_CONTEXT(2) 
PARAMETRIC_REPRESENTATION_CONTEXT() REPRESENTATION_CONTEXT('2D SPACE',''
  ) );
#1069 = ADVANCED_FACE('',(#1070),#402,.F.);
#1070 = FACE_BOUND('',#1071,.F.);
#1071 = EDGE_LOOP('',(#1072,#1073,#1074,#1095));
#1072 = ORIENTED_EDGE('',*,*,#386,.F.);
#1073 = ORIENTED_EDGE('',*,*,#471,.T.);
#1074 = ORIENTED_EDGE('',*,*,#1075,.T.);
#1075 = EDGE_CURVE('',#472,#811,#1076,.T.);
#1076 = SURFACE_CURVE('',#1077,(#1081,#1088),.PCURVE_S1.);
#1077 = LINE('',#1078,#1079);
#1078 = CARTESIAN_POINT('',(85.,-45.,-14.));
#1079 = VECTOR('',#1080,1.);
#1080 = DIRECTION('',(0.,1.,0.));
#1081 = PCURVE('',#402,#1082);
#1082 = DEFINITIONAL_REPRESENTATION('',(#1083),#1087);
#1083 = LINE('',#1084,#1085);
#1084 = CARTESIAN_POINT('',(170.,0.));
#1085 = VECTOR('',#1086,1.);
#1086 = DIRECTION('',(0.,1.));
#1087 = ( GEOMETRIC_REPRESENTATION_CONTEXT(2) 
PARAMETRIC_REPRESENTATION_CONTEXT() REPRESENTATION_CONTEXT('2D SPACE',''
  ) );
#1088 = PCURVE('',#532,#1089);
#1089 = DEFINITIONAL_REPRESENTATION('',(#1090),#1094);
#1090 = LINE('',#1091,#1092);
#1091 = CARTESIAN_POINT('',(0.,0.));
#1092 = VECTOR('',#1093,1.);
#1093 = DIRECTION('',(0.,-1.));
#1094 = ( GEOMETRIC_REPRESENTATION_CONTEXT(2) 
PARAMETRIC_REPRESENTATION_CONTEXT() REPRESENTATION_CONTEXT('2D SPACE',''
  ) );
#1095 = ORIENTED_EDGE('',*,*,#810,.F.);
#1096 = ADVANCED_FACE('',(#1097),#532,.T.);
#1097 = FACE_BOUND('',#1098,.T.);
#1098 = EDGE_LOOP('',(#1099,#1100,#1101,#1102));
#1099 = ORIENTED_EDGE('',*,*,#518,.F.);
#1100 = ORIENTED_EDGE('',*,*,#1075,.T.);
#1101 = ORIENTED_EDGE('',*,*,#835,.T.);
#1102 = ORIENTED_EDGE('',*,*,#763,.F.);
#1103 = ADVANCED_FACE('',(#1104),#563,.T.);
#1104 = FACE_BOUND('',#1105,.T.);
#1105 = EDGE_LOOP('',(#1106));
#1106 = ORIENTED_EDGE('',*,*,#546,.F.);
#1107 = ADVANCED_FACE('',(#1108),#670,.T.);
#1108 = FACE_BOUND('',#1109,.T.);
#1109 = EDGE_LOOP('',(#1110));
#1110 = ORIENTED_EDGE('',*,*,#653,.F.);
#1111 = ADVANCED_FACE('',(#1112),#875,.T.);
#1112 = FACE_BOUND('',#1113,.T.);
#1113 = EDGE_LOOP('',(#1114));
#1114 = ORIENTED_EDGE('',*,*,#858,.T.);
#1115 = ADVANCED_FACE('',(#1116),#982,.T.);
#1116 = FACE_BOUND('',#1117,.T.);
#1117 = EDGE_LOOP('',(#1118));
#1118 = ORIENTED_EDGE('',*,*,#965,.T.);
#1119 = ( GEOMETRIC_REPRESENTATION_CONTEXT(3) 
GLOBAL_UNCERTAINTY_ASSIGNED_CONTEXT((#1123)) 
GLOBAL_UNIT_ASSIGNED_CONTEXT((#1120,#1121,#1122)) REPRESENTATION_CONTEXT
('Context #1','3D Context with UNIT and UNCERTAINTY') );
#1120 = ( LENGTH_UNIT() NAMED_UNIT(*) SI_UNIT(.MILLI.,.METRE.) );
#1121 = ( NAMED_UNIT(*) PLANE_ANGLE_UNIT() SI_UNIT($,.RADIAN.) );
#1122 = ( NAMED_UNIT(*) SI_UNIT($,.STERADIAN.) SOLID_ANGLE_UNIT() );
#1123 = UNCERTAINTY_MEASURE_WITH_UNIT(LENGTH_MEASURE(1.E-07),#1120,
  'distance_accuracy_value','confusion accuracy');
#1124 = PRODUCT_RELATED_PRODUCT_CATEGORY('part',$,(#7));
ENDSEC;
END-ISO-10303-21;
