<?xml version="1.0" encoding="UTF-8"?>
<svg xmlns="http://www.w3.org/2000/svg" viewBox="0 0 743 315" width="743" height="315">
  <rect width="100%" height="100%" fill="#f4f1ea" />
  <text x="20" y="18" font-size="12" font-weight="600" font-family="sans-serif" fill="#1a1a1a">D14 · ROLLTOP</text>
  <text x="20" y="30" font-size="8" font-family="sans-serif" fill="#666">FRONT ELEVATION — ~2.2 px/mm · Nereid Rev A</text>
  <rect x="40" y="36" width="385.00000000000006" height="209.00000000000003" fill="#fff" stroke="#1a1a1a" stroke-width="1.6" />
  <rect x="69.70000000000002" y="63.500000000000014" width="325.6" height="154" fill="#e8ece8" stroke="#1a1a1a" stroke-width="1.1" />
  <text x="232.50000000000003" y="140.5" text-anchor="middle" font-size="9" fill="#555" font-family="sans-serif">Glass in rigid bezel</text>
  
        <circle cx="77.70000000000002" cy="71.50000000000001" r="3.5" fill="none" stroke="#1a1a1a" />
        <circle cx="387.30000000000007" cy="71.50000000000001" r="3.5" fill="none" stroke="#1a1a1a" />
        <circle cx="77.70000000000002" cy="209.5" r="3.5" fill="none" stroke="#1a1a1a" />
        <circle cx="387.30000000000007" cy="209.5" r="3.5" fill="none" stroke="#1a1a1a" />
      
  
    <line x1="40" y1="245.00000000000003" x2="40" y2="259" stroke="#5a6a4a" stroke-width="0.6" />
    <line x1="425.00000000000006" y1="245.00000000000003" x2="425.00000000000006" y2="259" stroke="#5a6a4a" stroke-width="0.6" />
    <line x1="40" y1="259" x2="425.00000000000006" y2="259" stroke="#5a6a4a" stroke-width="0.8" />
    <text x="232.50000000000003" y="271" fill="#3d4a32" font-size="9" font-family="sans-serif" text-anchor="middle">175 mm</text>
  
  
    <line x1="425.00000000000006" y1="36" x2="439.00000000000006" y2="36" stroke="#5a6a4a" stroke-width="0.6" />
    <line x1="425.00000000000006" y1="245.00000000000003" x2="439.00000000000006" y2="245.00000000000003" stroke="#5a6a4a" stroke-width="0.6" />
    <line x1="439.00000000000006" y1="36" x2="439.00000000000006" y2="245.00000000000003" stroke="#5a6a4a" stroke-width="0.8" />
    <text x="447.00000000000006" y="144.5" fill="#3d4a32" font-size="9" font-family="sans-serif" text-anchor="middle">95 mm</text>
  
  
    <line x1="69.70000000000002" y1="63.500000000000014" x2="69.70000000000002" y2="53.500000000000014" stroke="#5a6a4a" stroke-width="0.6" />
    <line x1="395.30000000000007" y1="63.500000000000014" x2="395.30000000000007" y2="53.500000000000014" stroke="#5a6a4a" stroke-width="0.6" />
    <line x1="69.70000000000002" y1="53.500000000000014" x2="395.30000000000007" y2="53.500000000000014" stroke="#5a6a4a" stroke-width="0.8" />
    <text x="232.50000000000006" y="49.500000000000014" fill="#3d4a32" font-size="9" font-family="sans-serif" text-anchor="middle">AP 148 mm</text>
  
  <text x="495.00000000000006" y="30" font-size="9" font-weight="600" fill="#1a1a1a" font-family="sans-serif">SECTION STACK</text>
  <rect x="495.00000000000006" y="46" width="88" height="8" fill="none" stroke="#1a1a1a" stroke-width="1.1" />
        <text x="591" y="53" fill="#333" font-size="9" font-family="sans-serif">Shell</text><rect x="495.00000000000006" y="54" width="88" height="4" fill="none" stroke="#1a1a1a" stroke-width="1.1" />
        <text x="591" y="59" fill="#333" font-size="9" font-family="sans-serif">Seal</text><rect x="495.00000000000006" y="58" width="88" height="9.9" fill="none" stroke="#1a1a1a" stroke-width="1.1" />
        <text x="591" y="65.95" fill="#333" font-size="9" font-family="sans-serif">Window 1.5mm</text><rect x="495.00000000000006" y="67.9" width="88" height="14" fill="none" stroke="#1a1a1a" stroke-width="1.1" />
        <text x="591" y="77.9" fill="#333" font-size="9" font-family="sans-serif">Air pocket</text><rect x="495.00000000000006" y="81.9" width="88" height="18" fill="none" stroke="#1a1a1a" stroke-width="1.1" />
        <text x="591" y="93.9" fill="#333" font-size="9" font-family="sans-serif">Phone</text><rect x="495.00000000000006" y="99.9" width="88" height="10" fill="none" stroke="#1a1a1a" stroke-width="1.1" />
        <text x="591" y="107.9" fill="#333" font-size="9" font-family="sans-serif">Back</text>
  
    <line x1="495.00000000000006" y1="46" x2="495.00000000000006" y2="38" stroke="#5a6a4a" stroke-width="0.6" />
    <line x1="583" y1="46" x2="583" y2="38" stroke="#5a6a4a" stroke-width="0.6" />
    <line x1="495.00000000000006" y1="38" x2="583" y2="38" stroke="#5a6a4a" stroke-width="0.8" />
    <text x="539" y="34" fill="#3d4a32" font-size="9" font-family="sans-serif" text-anchor="middle">40 mm H</text>
  
  <text x="20" y="287" font-size="8" fill="#444" font-family="sans-serif">Shell: 500D aramid + TPU coat · Mount: A1 load-cell bezel</text>
  <text x="20" y="299" font-size="8" fill="#444" font-family="sans-serif">Depth 6 m · 122 g · Load cell</text>
  <rect x="593" y="273" width="130" height="30" fill="none" stroke="#1a1a1a" stroke-width="0.8" />
  <text x="603" y="287" font-size="8" fill="#1a1a1a" font-family="sans-serif">NEREID PROGRAM</text>
  <text x="603" y="299" font-size="8" fill="#1a1a1a" font-family="sans-serif">DWG D14-00 · REV A</text>
</svg>