<?xml version="1.0" encoding="UTF-8"?>
<svg xmlns="http://www.w3.org/2000/svg" viewBox="0 0 771.6 370" width="771.6" height="370">
  <rect width="100%" height="100%" fill="#f4f1ea" />
  <text x="20" y="18" font-size="12" font-weight="600" font-family="sans-serif" fill="#1a1a1a">D17 · CHESTBOARD</text>
  <text x="20" y="30" font-size="8" font-family="sans-serif" fill="#666">FRONT ELEVATION — ~2.2 px/mm · Nereid Rev A</text>
  <rect x="40" y="36" width="440.00000000000006" height="264" fill="#fff" stroke="#1a1a1a" stroke-width="1.6" />
  <rect x="89.50000000000003" y="74.49999999999999" width="341" height="187.00000000000003" fill="#e8ece8" stroke="#1a1a1a" stroke-width="1.1" />
  <text x="260" y="168" text-anchor="middle" font-size="9" fill="#555" font-family="sans-serif">PC landscape</text>
  
  
    <line x1="40" y1="300" x2="40" y2="314" stroke="#5a6a4a" stroke-width="0.6" />
    <line x1="480.00000000000006" y1="300" x2="480.00000000000006" y2="314" stroke="#5a6a4a" stroke-width="0.6" />
    <line x1="40" y1="314" x2="480.00000000000006" y2="314" stroke="#5a6a4a" stroke-width="0.8" />
    <text x="260" y="326" fill="#3d4a32" font-size="9" font-family="sans-serif" text-anchor="middle">200 mm</text>
  
  
    <line x1="480.00000000000006" y1="36" x2="494.00000000000006" y2="36" stroke="#5a6a4a" stroke-width="0.6" />
    <line x1="480.00000000000006" y1="300" x2="494.00000000000006" y2="300" stroke="#5a6a4a" stroke-width="0.6" />
    <line x1="494.00000000000006" y1="36" x2="494.00000000000006" y2="300" stroke="#5a6a4a" stroke-width="0.8" />
    <text x="502.00000000000006" y="172" fill="#3d4a32" font-size="9" font-family="sans-serif" text-anchor="middle">120 mm</text>
  
  
    <line x1="89.50000000000003" y1="74.49999999999999" x2="89.50000000000003" y2="64.49999999999999" stroke="#5a6a4a" stroke-width="0.6" />
    <line x1="430.5" y1="74.49999999999999" x2="430.5" y2="64.49999999999999" stroke="#5a6a4a" stroke-width="0.6" />
    <line x1="89.50000000000003" y1="64.49999999999999" x2="430.5" y2="64.49999999999999" stroke="#5a6a4a" stroke-width="0.8" />
    <text x="260" y="60.499999999999986" fill="#3d4a32" font-size="9" font-family="sans-serif" text-anchor="middle">AP 155 mm</text>
  
  <text x="550" y="30" font-size="9" font-weight="600" fill="#1a1a1a" font-family="sans-serif">SECTION STACK</text>
  <rect x="550" y="46" width="61.60000000000001" height="8" fill="none" stroke="#1a1a1a" stroke-width="1.1" />
        <text x="619.6" y="53" fill="#333" font-size="9" font-family="sans-serif">Shell</text><rect x="550" y="54" width="61.60000000000001" height="4" fill="none" stroke="#1a1a1a" stroke-width="1.1" />
        <text x="619.6" y="59" fill="#333" font-size="9" font-family="sans-serif">Seal</text><rect x="550" y="58" width="61.60000000000001" height="7.92" fill="none" stroke="#1a1a1a" stroke-width="1.1" />
        <text x="619.6" y="64.96000000000001" fill="#333" font-size="9" font-family="sans-serif">Window 1.2mm</text><rect x="550" y="65.92" width="61.60000000000001" height="14" fill="none" stroke="#1a1a1a" stroke-width="1.1" />
        <text x="619.6" y="75.92" fill="#333" font-size="9" font-family="sans-serif">Air pocket</text><rect x="550" y="79.92" width="61.60000000000001" height="18" fill="none" stroke="#1a1a1a" stroke-width="1.1" />
        <text x="619.6" y="91.92" fill="#333" font-size="9" font-family="sans-serif">Phone</text><rect x="550" y="97.92" width="61.60000000000001" height="10" fill="none" stroke="#1a1a1a" stroke-width="1.1" />
        <text x="619.6" y="105.92" fill="#333" font-size="9" font-family="sans-serif">Back</text>
  
    <line x1="550" y1="46" x2="550" y2="38" stroke="#5a6a4a" stroke-width="0.6" />
    <line x1="611.6" y1="46" x2="611.6" y2="38" stroke="#5a6a4a" stroke-width="0.6" />
    <line x1="550" y1="38" x2="611.6" y2="38" stroke="#5a6a4a" stroke-width="0.8" />
    <text x="580.8" y="34" fill="#3d4a32" font-size="9" font-family="sans-serif" text-anchor="middle">28 mm H</text>
  
  <text x="20" y="342" font-size="8" fill="#444" font-family="sans-serif">Shell: PPA + MOLLE plate · Mount: fixed</text>
  <text x="20" y="354" font-size="8" fill="#444" font-family="sans-serif">Depth 10 m · 184 g · Keys</text>
  <rect x="621.6" y="328" width="130" height="30" fill="none" stroke="#1a1a1a" stroke-width="0.8" />
  <text x="631.6" y="342" font-size="8" fill="#1a1a1a" font-family="sans-serif">NEREID PROGRAM</text>
  <text x="631.6" y="354" font-size="8" fill="#1a1a1a" font-family="sans-serif">DWG D17-00 · REV A</text>
</svg>