ISO-10303-21;
HEADER;
FILE_DESCRIPTION(('Open CASCADE Model'),'2;1');
FILE_NAME('Open CASCADE Shape Model','2026-09-17T22:23:04',('Author'),(
    'Open CASCADE'),'Open CASCADE STEP processor 7.9','Open CASCADE 7.9'
  ,'Unknown');
FILE_SCHEMA(('AUTOMOTIVE_DESIGN { 1 0 10303 214 1 1 1 1 }'));
ENDSEC;
DATA;
#1 = APPLICATION_PROTOCOL_DEFINITION('international standard',
  'automotive_design',2000,#2);
#2 = APPLICATION_CONTEXT(
  'core data for automotive mechanical design processes');
#3 = SHAPE_DEFINITION_REPRESENTATION(#4,#10);
#4 = PRODUCT_DEFINITION_SHAPE('','',#5);
#5 = PRODUCT_DEFINITION('design','',#6,#9);
#6 = PRODUCT_DEFINITION_FORMATION('','',#7);
#7 = PRODUCT('Open CASCADE STEP translator 7.9 34',
  'Open CASCADE STEP translator 7.9 34','',(#8));
#8 = PRODUCT_CONTEXT('',#2,'mechanical');
#9 = PRODUCT_DEFINITION_CONTEXT('part definition',#2,'design');
#10 = ADVANCED_BREP_SHAPE_REPRESENTATION('',(#11,#15),#685);
#11 = AXIS2_PLACEMENT_3D('',#12,#13,#14);
#12 = CARTESIAN_POINT('',(0.,0.,0.));
#13 = DIRECTION('',(0.,0.,1.));
#14 = DIRECTION('',(1.,0.,-0.));
#15 = BREP_WITH_VOIDS('',#16,(#391,#489,#587));
#16 = CLOSED_SHELL('',(#17,#283,#354,#382,#386));
#17 = ADVANCED_FACE('',(#18),#33,.F.);
#18 = FACE_BOUND('',#19,.F.);
#19 = EDGE_LOOP('',(#20,#59,#82,#109,#110,#134));
#20 = ORIENTED_EDGE('',*,*,#21,.F.);
#21 = EDGE_CURVE('',#22,#24,#26,.T.);
#22 = VERTEX_POINT('',#23);
#23 = CARTESIAN_POINT('',(3.996802888651E-15,36.,0.));
#24 = VERTEX_POINT('',#25);
#25 = CARTESIAN_POINT('',(-27.93240297222,2.5,0.));
#26 = SURFACE_CURVE('',#27,(#32,#47),.PCURVE_S1.);
#27 = ELLIPSE('',#28,36.,28.);
#28 = AXIS2_PLACEMENT_3D('',#29,#30,#31);
#29 = CARTESIAN_POINT('',(0.,0.,0.));
#30 = DIRECTION('',(0.,-0.,1.));
#31 = DIRECTION('',(1.110223024625E-16,1.,0.));
#32 = PCURVE('',#33,#41);
#33 = SURFACE_OF_LINEAR_EXTRUSION('',#34,#39);
#34 = ELLIPSE('',#35,36.,28.);
#35 = AXIS2_PLACEMENT_3D('',#36,#37,#38);
#36 = CARTESIAN_POINT('',(0.,0.,0.));
#37 = DIRECTION('',(0.,-0.,1.));
#38 = DIRECTION('',(1.110223024625E-16,1.,0.));
#39 = VECTOR('',#40,1.);
#40 = DIRECTION('',(-0.,-0.,-1.));
#41 = DEFINITIONAL_REPRESENTATION('',(#42),#46);
#42 = LINE('',#43,#44);
#43 = CARTESIAN_POINT('',(0.,0.));
#44 = VECTOR('',#45,1.);
#45 = DIRECTION('',(1.,0.));
#46 = ( GEOMETRIC_REPRESENTATION_CONTEXT(2) 
PARAMETRIC_REPRESENTATION_CONTEXT() REPRESENTATION_CONTEXT('2D SPACE',''
  ) );
#47 = PCURVE('',#48,#53);
#48 = PLANE('',#49);
#49 = AXIS2_PLACEMENT_3D('',#50,#51,#52);
#50 = CARTESIAN_POINT('',(-2.162231848775E-15,1.153771951728,0.));
#51 = DIRECTION('',(0.,0.,1.));
#52 = DIRECTION('',(1.,0.,-0.));
#53 = DEFINITIONAL_REPRESENTATION('',(#54),#58);
#54 = ELLIPSE('',#55,36.,28.);
#55 = AXIS2_PLACEMENT_2D('',#56,#57);
#56 = CARTESIAN_POINT('',(2.162231848775E-15,-1.153771951728));
#57 = DIRECTION('',(1.110223024625E-16,1.));
#58 = ( GEOMETRIC_REPRESENTATION_CONTEXT(2) 
PARAMETRIC_REPRESENTATION_CONTEXT() REPRESENTATION_CONTEXT('2D SPACE',''
  ) );
#59 = ORIENTED_EDGE('',*,*,#60,.T.);
#60 = EDGE_CURVE('',#22,#61,#63,.T.);
#61 = VERTEX_POINT('',#62);
#62 = CARTESIAN_POINT('',(3.996802888651E-15,36.,18.));
#63 = SEAM_CURVE('',#64,(#68,#75),.PCURVE_S1.);
#64 = LINE('',#65,#66);
#65 = CARTESIAN_POINT('',(3.996802888651E-15,36.,0.));
#66 = VECTOR('',#67,1.);
#67 = DIRECTION('',(0.,0.,1.));
#68 = PCURVE('',#33,#69);
#69 = DEFINITIONAL_REPRESENTATION('',(#70),#74);
#70 = LINE('',#71,#72);
#71 = CARTESIAN_POINT('',(6.28318530718,0.));
#72 = VECTOR('',#73,1.);
#73 = DIRECTION('',(0.,-1.));
#74 = ( GEOMETRIC_REPRESENTATION_CONTEXT(2) 
PARAMETRIC_REPRESENTATION_CONTEXT() REPRESENTATION_CONTEXT('2D SPACE',''
  ) );
#75 = PCURVE('',#33,#76);
#76 = DEFINITIONAL_REPRESENTATION('',(#77),#81);
#77 = LINE('',#78,#79);
#78 = CARTESIAN_POINT('',(0.,0.));
#79 = VECTOR('',#80,1.);
#80 = DIRECTION('',(0.,-1.));
#81 = ( GEOMETRIC_REPRESENTATION_CONTEXT(2) 
PARAMETRIC_REPRESENTATION_CONTEXT() REPRESENTATION_CONTEXT('2D SPACE',''
  ) );
#82 = ORIENTED_EDGE('',*,*,#83,.T.);
#83 = EDGE_CURVE('',#61,#61,#84,.T.);
#84 = SURFACE_CURVE('',#85,(#90,#97),.PCURVE_S1.);
#85 = ELLIPSE('',#86,36.,28.);
#86 = AXIS2_PLACEMENT_3D('',#87,#88,#89);
#87 = CARTESIAN_POINT('',(0.,0.,18.));
#88 = DIRECTION('',(0.,-0.,1.));
#89 = DIRECTION('',(1.110223024625E-16,1.,0.));
#90 = PCURVE('',#33,#91);
#91 = DEFINITIONAL_REPRESENTATION('',(#92),#96);
#92 = LINE('',#93,#94);
#93 = CARTESIAN_POINT('',(0.,-18.));
#94 = VECTOR('',#95,1.);
#95 = DIRECTION('',(1.,0.));
#96 = ( GEOMETRIC_REPRESENTATION_CONTEXT(2) 
PARAMETRIC_REPRESENTATION_CONTEXT() REPRESENTATION_CONTEXT('2D SPACE',''
  ) );
#97 = PCURVE('',#98,#103);
#98 = PLANE('',#99);
#99 = AXIS2_PLACEMENT_3D('',#100,#101,#102);
#100 = CARTESIAN_POINT('',(-2.162231848775E-15,1.153771951728,18.));
#101 = DIRECTION('',(0.,0.,1.));
#102 = DIRECTION('',(1.,0.,-0.));
#103 = DEFINITIONAL_REPRESENTATION('',(#104),#108);
#104 = ELLIPSE('',#105,36.,28.);
#105 = AXIS2_PLACEMENT_2D('',#106,#107);
#106 = CARTESIAN_POINT('',(2.162231848775E-15,-1.153771951728));
#107 = DIRECTION('',(1.110223024625E-16,1.));
#108 = ( GEOMETRIC_REPRESENTATION_CONTEXT(2) 
PARAMETRIC_REPRESENTATION_CONTEXT() REPRESENTATION_CONTEXT('2D SPACE',''
  ) );
#109 = ORIENTED_EDGE('',*,*,#60,.F.);
#110 = ORIENTED_EDGE('',*,*,#111,.F.);
#111 = EDGE_CURVE('',#112,#22,#114,.T.);
#112 = VERTEX_POINT('',#113);
#113 = CARTESIAN_POINT('',(-27.93240297222,-2.5,0.));
#114 = SURFACE_CURVE('',#115,(#120,#127),.PCURVE_S1.);
#115 = ELLIPSE('',#116,36.,28.);
#116 = AXIS2_PLACEMENT_3D('',#117,#118,#119);
#117 = CARTESIAN_POINT('',(0.,0.,0.));
#118 = DIRECTION('',(0.,-0.,1.));
#119 = DIRECTION('',(1.110223024625E-16,1.,0.));
#120 = PCURVE('',#33,#121);
#121 = DEFINITIONAL_REPRESENTATION('',(#122),#126);
#122 = LINE('',#123,#124);
#123 = CARTESIAN_POINT('',(0.,0.));
#124 = VECTOR('',#125,1.);
#125 = DIRECTION('',(1.,0.));
#126 = ( GEOMETRIC_REPRESENTATION_CONTEXT(2) 
PARAMETRIC_REPRESENTATION_CONTEXT() REPRESENTATION_CONTEXT('2D SPACE',''
  ) );
#127 = PCURVE('',#48,#128);
#128 = DEFINITIONAL_REPRESENTATION('',(#129),#133);
#129 = ELLIPSE('',#130,36.,28.);
#130 = AXIS2_PLACEMENT_2D('',#131,#132);
#131 = CARTESIAN_POINT('',(2.162231848775E-15,-1.153771951728));
#132 = DIRECTION('',(1.110223024625E-16,1.));
#133 = ( GEOMETRIC_REPRESENTATION_CONTEXT(2) 
PARAMETRIC_REPRESENTATION_CONTEXT() REPRESENTATION_CONTEXT('2D SPACE',''
  ) );
#134 = ORIENTED_EDGE('',*,*,#135,.T.);
#135 = EDGE_CURVE('',#112,#24,#136,.T.);
#136 = SURFACE_CURVE('',#137,(#182,#230),.PCURVE_S1.);
#137 = B_SPLINE_CURVE_WITH_KNOTS('',8,(#138,#139,#140,#141,#142,#143,
    #144,#145,#146,#147,#148,#149,#150,#151,#152,#153,#154,#155,#156,
    #157,#158,#159,#160,#161,#162,#163,#164,#165,#166,#167,#168,#169,
    #170,#171,#172,#173,#174,#175,#176,#177,#178,#179,#180,#181),
  .UNSPECIFIED.,.F.,.F.,(9,7,7,7,7,7,9),(0.,0.250484238007,
    0.336241683451,0.501139979423,0.604898431569,0.749378702482,1.),
  .UNSPECIFIED.);
#138 = CARTESIAN_POINT('',(-27.93240297222,-2.5,-6.E-07));
#139 = CARTESIAN_POINT('',(-27.93240296943,-2.50000005142,0.214249761909
    ));
#140 = CARTESIAN_POINT('',(-27.93353911387,-2.479015502351,0.42820091428
    ));
#141 = CARTESIAN_POINT('',(-27.93580592002,-2.437150899209,
    0.640973834974));
#142 = CARTESIAN_POINT('',(-27.93917121063,-2.373997916567,
    0.851325213048));
#143 = CARTESIAN_POINT('',(-27.94356075347,-2.288994808951,
    1.057685479532));
#144 = CARTESIAN_POINT('',(-27.94884185503,-2.181361572876,
    1.258105266381));
#145 = CARTESIAN_POINT('',(-27.95481614431,-2.050305526539,
    1.450300763186));
#146 = CARTESIAN_POINT('',(-27.96339677048,-1.840939370973,
    1.693410210434));
#147 = CARTESIAN_POINT('',(-27.96563273124,-1.784656580421,
    1.754073276148));
#148 = CARTESIAN_POINT('',(-27.96790453083,-1.725450065014,
    1.813266864442));
#149 = CARTESIAN_POINT('',(-27.97019879481,-1.663287574052,
    1.870842903926));
#150 = CARTESIAN_POINT('',(-27.9725004813,-1.598146649133,1.926634986295
    ));
#151 = CARTESIAN_POINT('',(-27.97479292943,-1.530017514987,
    1.980459902127));
#152 = CARTESIAN_POINT('',(-27.97705790777,-1.458905970325,
    2.032119176676));
#153 = CARTESIAN_POINT('',(-27.98354006236,-1.242411724476,
    2.176161166939));
#154 = CARTESIAN_POINT('',(-27.98763903686,-1.088746987289,
    2.262331867356));
#155 = CARTESIAN_POINT('',(-27.99142118915,-0.924278033791,2.33810970163
    ));
#156 = CARTESIAN_POINT('',(-27.99471519699,-0.749886309157,
    2.401576473514));
#157 = CARTESIAN_POINT('',(-27.99734382552,-0.566990686281,
    2.450839744745));
#158 = CARTESIAN_POINT('',(-27.99914934839,-0.377646353095,2.48425039343
    ));
#159 = CARTESIAN_POINT('',(-28.00003323323,-0.184654587829,
    2.500615292864));
#160 = CARTESIAN_POINT('',(-27.99997791962,0.129468500153,2.499591195482
    ));
#161 = CARTESIAN_POINT('',(-27.99959315966,0.25079546458,2.492467030224)
  );
#162 = CARTESIAN_POINT('',(-27.99884500083,0.371223163471,2.478612383609
    ));
#163 = CARTESIAN_POINT('',(-27.99774882122,0.489964055978,2.458202340622
    ));
#164 = CARTESIAN_POINT('',(-27.99633181048,0.606341149674,2.431537370699
    ));
#165 = CARTESIAN_POINT('',(-27.99462955266,0.719779556465,2.39900419792)
  );
#166 = CARTESIAN_POINT('',(-27.99268276054,0.829799648241,2.361049076697
    ));
#167 = CARTESIAN_POINT('',(-27.9875423062,1.083908797163,2.258446664154)
  );
#168 = CARTESIAN_POINT('',(-27.98415897789,1.224431924382,2.189165296365
    ));
#169 = CARTESIAN_POINT('',(-27.98049235194,1.356887930197,2.111496574939
    ));
#170 = CARTESIAN_POINT('',(-27.97665153457,1.480908076828,2.026607402602
    ));
#171 = CARTESIAN_POINT('',(-27.97273558766,1.596348197489,1.935571853056
    ));
#172 = CARTESIAN_POINT('',(-27.96882879715,1.703230976668,1.839329834964
    ));
#173 = CARTESIAN_POINT('',(-27.96500015959,1.801702525782,1.738660613388
    ));
#174 = CARTESIAN_POINT('',(-27.95489539608,2.048566129704,1.452847612787
    ));
#175 = CARTESIAN_POINT('',(-27.94890189898,2.180137759691,1.260381934565
    ));
#176 = CARTESIAN_POINT('',(-27.94360230991,2.288190057385,1.059637947221
    ));
#177 = CARTESIAN_POINT('',(-27.93919668237,2.373519842805,0.852916415464
    ));
#178 = CARTESIAN_POINT('',(-27.93581879821,2.436913078358,0.642180870463
    ));
#179 = CARTESIAN_POINT('',(-27.93354343039,2.478935770572,0.4290108091)
  );
#180 = CARTESIAN_POINT('',(-27.93240296943,2.500000051518,0.214656389056
    ));
#181 = CARTESIAN_POINT('',(-27.93240297222,2.5,-6.E-07));
#182 = PCURVE('',#33,#183);
#183 = DEFINITIONAL_REPRESENTATION('',(#184),#229);
#184 = B_SPLINE_CURVE_WITH_KNOTS('',8,(#185,#186,#187,#188,#189,#190,
    #191,#192,#193,#194,#195,#196,#197,#198,#199,#200,#201,#202,#203,
    #204,#205,#206,#207,#208,#209,#210,#211,#212,#213,#214,#215,#216,
    #217,#218,#219,#220,#221,#222,#223,#224,#225,#226,#227,#228),
  .UNSPECIFIED.,.F.,.F.,(9,7,7,7,7,7,9),(0.,0.250484238007,
    0.336241683451,0.501139979423,0.604898431569,0.749378702482,1.),
  .UNSPECIFIED.);
#185 = CARTESIAN_POINT('',(1.640296709047,5.999999999062E-07));
#186 = CARTESIAN_POINT('',(1.640296710479,-0.214249761909));
#187 = CARTESIAN_POINT('',(1.639712395721,-0.42820091428));
#188 = CARTESIAN_POINT('',(1.638546675686,-0.640973834975));
#189 = CARTESIAN_POINT('',(1.6367883143,-0.851325213047));
#190 = CARTESIAN_POINT('',(1.63442193126,-1.057685479532));
#191 = CARTESIAN_POINT('',(1.631426212315,-1.258105266381));
#192 = CARTESIAN_POINT('',(1.627779582582,-1.450300763186));
#193 = CARTESIAN_POINT('',(1.621955787651,-1.693410210434));
#194 = CARTESIAN_POINT('',(1.62039034073,-1.754073276148));
#195 = CARTESIAN_POINT('',(1.618743719397,-1.813266864442));
#196 = CARTESIAN_POINT('',(1.617015046936,-1.870842903926));
#197 = CARTESIAN_POINT('',(1.61520371849,-1.926634986295));
#198 = CARTESIAN_POINT('',(1.613309480494,-1.980459902127));
#199 = CARTESIAN_POINT('',(1.611332510118,-2.032119176676));
#200 = CARTESIAN_POINT('',(1.605314326678,-2.176161166939));
#201 = CARTESIAN_POINT('',(1.601043389705,-2.262331867356));
#202 = CARTESIAN_POINT('',(1.596472898578,-2.33810970163));
#203 = CARTESIAN_POINT('',(1.591627397398,-2.401576473515));
#204 = CARTESIAN_POINT('',(1.586546280156,-2.450839744745));
#205 = CARTESIAN_POINT('',(1.581286496146,-2.48425039343));
#206 = CARTESIAN_POINT('',(1.575925621037,-2.500615292864));
#207 = CARTESIAN_POINT('',(1.56719997948,-2.499591195482));
#208 = CARTESIAN_POINT('',(1.563829783005,-2.492467030224));
#209 = CARTESIAN_POINT('',(1.56048450486,-2.478612383609));
#210 = CARTESIAN_POINT('',(1.557185962934,-2.458202340622));
#211 = CARTESIAN_POINT('',(1.553952913695,-2.431537370699));
#212 = CARTESIAN_POINT('',(1.550801292221,-2.39900419792));
#213 = CARTESIAN_POINT('',(1.547744403975,-2.361049076697));
#214 = CARTESIAN_POINT('',(1.540683429432,-2.258446664154));
#215 = CARTESIAN_POINT('',(1.536778187178,-2.189165296365));
#216 = CARTESIAN_POINT('',(1.533096586859,-2.111496574939));
#217 = CARTESIAN_POINT('',(1.529648908076,-2.026607402602));
#218 = CARTESIAN_POINT('',(1.526439228477,-1.935571853056));
#219 = CARTESIAN_POINT('',(1.523467008512,-1.839329834964));
#220 = CARTESIAN_POINT('',(1.520728281582,-1.738660613388));
#221 = CARTESIAN_POINT('',(1.513861469577,-1.452847612787));
#222 = CARTESIAN_POINT('',(1.510200503236,-1.260381934566));
#223 = CARTESIAN_POINT('',(1.507193125632,-1.05963794722));
#224 = CARTESIAN_POINT('',(1.504817650237,-0.852916415464));
#225 = CARTESIAN_POINT('',(1.503052600027,-0.642180870463));
#226 = CARTESIAN_POINT('',(1.501882477999,-0.4290108091));
#227 = CARTESIAN_POINT('',(1.501295943108,-0.214656389056));
#228 = CARTESIAN_POINT('',(1.501295944543,5.999999999062E-07));
#229 = ( GEOMETRIC_REPRESENTATION_CONTEXT(2) 
PARAMETRIC_REPRESENTATION_CONTEXT() REPRESENTATION_CONTEXT('2D SPACE',''
  ) );
#230 = PCURVE('',#231,#236);
#231 = CYLINDRICAL_SURFACE('',#232,2.5);
#232 = AXIS2_PLACEMENT_3D('',#233,#234,#235);
#233 = CARTESIAN_POINT('',(-32.,0.,-4.440892098501E-16));
#234 = DIRECTION('',(1.,0.,1.110223024625E-16));
#235 = DIRECTION('',(1.110223024625E-16,0.,-1.));
#236 = DEFINITIONAL_REPRESENTATION('',(#237),#282);
#237 = B_SPLINE_CURVE_WITH_KNOTS('',8,(#238,#239,#240,#241,#242,#243,
    #244,#245,#246,#247,#248,#249,#250,#251,#252,#253,#254,#255,#256,
    #257,#258,#259,#260,#261,#262,#263,#264,#265,#266,#267,#268,#269,
    #270,#271,#272,#273,#274,#275,#276,#277,#278,#279,#280,#281),
  .UNSPECIFIED.,.F.,.F.,(9,7,7,7,7,7,9),(0.,0.250484238007,
    0.336241683451,0.501139979423,0.604898431569,0.749378702482,1.),
  .UNSPECIFIED.);
#238 = CARTESIAN_POINT('',(4.712389220385,4.06759702778));
#239 = CARTESIAN_POINT('',(4.626689075621,4.067597030564));
#240 = CARTESIAN_POINT('',(4.541108381689,4.066460886121));
#241 = CARTESIAN_POINT('',(4.455041450314,4.06419407998));
#242 = CARTESIAN_POINT('',(4.368030822515,4.060828789368));
#243 = CARTESIAN_POINT('',(4.279664931638,4.05643924653));
#244 = CARTESIAN_POINT('',(4.189493653003,4.051158144969));
#245 = CARTESIAN_POINT('',(4.09703125463,4.045183855683));
#246 = CARTESIAN_POINT('',(3.968696448478,4.036603229513));
#247 = CARTESIAN_POINT('',(3.935618584106,4.03436726876));
#248 = CARTESIAN_POINT('',(3.902169598954,4.032095469164));
#249 = CARTESIAN_POINT('',(3.868327667036,4.029801205186));
#250 = CARTESIAN_POINT('',(3.834073481002,4.0274995187));
#251 = CARTESIAN_POINT('',(3.799389928151,4.02520707057));
#252 = CARTESIAN_POINT('',(3.764261766452,4.02294209223));
#253 = CARTESIAN_POINT('',(3.66024803394,4.01645993764));
#254 = CARTESIAN_POINT('',(3.589980852776,4.012360963131));
#255 = CARTESIAN_POINT('',(3.517929822121,4.008578810847));
#256 = CARTESIAN_POINT('',(3.444216583974,4.005284803007));
#257 = CARTESIAN_POINT('',(3.369022826066,4.00265617448));
#258 = CARTESIAN_POINT('',(3.292629804144,4.000850651609));
#259 = CARTESIAN_POINT('',(3.215454892801,3.999966766767));
#260 = CARTESIAN_POINT('',(3.089804989862,4.000022080376));
#261 = CARTESIAN_POINT('',(3.04126526428,4.000406840333));
#262 = CARTESIAN_POINT('',(2.992901966571,4.00115499917));
#263 = CARTESIAN_POINT('',(2.944856677517,4.002251178771));
#264 = CARTESIAN_POINT('',(2.897240642377,4.003668189519));
#265 = CARTESIAN_POINT('',(2.850146543536,4.005370447336));
#266 = CARTESIAN_POINT('',(2.803655305292,4.007317239452));
#267 = CARTESIAN_POINT('',(2.694038726528,4.012457693791));
#268 = CARTESIAN_POINT('',(2.631542172841,4.015841022101));
#269 = CARTESIAN_POINT('',(2.570385693153,4.019507648055));
#270 = CARTESIAN_POINT('',(2.510553859005,4.023348465429));
#271 = CARTESIAN_POINT('',(2.452003342811,4.027264412339));
#272 = CARTESIAN_POINT('',(2.394666764351,4.031171202843));
#273 = CARTESIAN_POINT('',(2.338445838403,4.034999840405));
#274 = CARTESIAN_POINT('',(2.187379913587,4.045104603918));
#275 = CARTESIAN_POINT('',(2.094716126418,4.051098101014));
#276 = CARTESIAN_POINT('',(2.004356490824,4.056397690088));
#277 = CARTESIAN_POINT('',(1.915812731477,4.060803317621));
#278 = CARTESIAN_POINT('',(1.828632122543,4.064181201784));
#279 = CARTESIAN_POINT('',(1.742400887589,4.06645656961));
#280 = CARTESIAN_POINT('',(1.656658882417,4.06759703057));
#281 = CARTESIAN_POINT('',(1.570796086795,4.06759702778));
#282 = ( GEOMETRIC_REPRESENTATION_CONTEXT(2) 
PARAMETRIC_REPRESENTATION_CONTEXT() REPRESENTATION_CONTEXT('2D SPACE',''
  ) );
#283 = ADVANCED_FACE('',(#284),#48,.F.);
#284 = FACE_BOUND('',#285,.F.);
#285 = EDGE_LOOP('',(#286,#287,#288,#309,#335));
#286 = ORIENTED_EDGE('',*,*,#111,.T.);
#287 = ORIENTED_EDGE('',*,*,#21,.T.);
#288 = ORIENTED_EDGE('',*,*,#289,.T.);
#289 = EDGE_CURVE('',#24,#290,#292,.T.);
#290 = VERTEX_POINT('',#291);
#291 = CARTESIAN_POINT('',(-24.,2.5,-2.641031523559E-16));
#292 = SURFACE_CURVE('',#293,(#297,#303),.PCURVE_S1.);
#293 = LINE('',#294,#295);
#294 = CARTESIAN_POINT('',(-32.,2.5,0.));
#295 = VECTOR('',#296,1.);
#296 = DIRECTION('',(1.,0.,1.110223024625E-16));
#297 = PCURVE('',#48,#298);
#298 = DEFINITIONAL_REPRESENTATION('',(#299),#302);
#299 = B_SPLINE_CURVE_WITH_KNOTS('',1,(#300,#301),.UNSPECIFIED.,.F.,.F.,
  (2,2),(-5.999999999062E-07,8.0000006),.PIECEWISE_BEZIER_KNOTS.);
#300 = CARTESIAN_POINT('',(-32.0000006,1.346228048272));
#301 = CARTESIAN_POINT('',(-23.9999994,1.346228048272));
#302 = ( GEOMETRIC_REPRESENTATION_CONTEXT(2) 
PARAMETRIC_REPRESENTATION_CONTEXT() REPRESENTATION_CONTEXT('2D SPACE',''
  ) );
#303 = PCURVE('',#231,#304);
#304 = DEFINITIONAL_REPRESENTATION('',(#305),#308);
#305 = B_SPLINE_CURVE_WITH_KNOTS('',1,(#306,#307),.UNSPECIFIED.,.F.,.F.,
  (2,2),(-5.999999999062E-07,8.0000006),.PIECEWISE_BEZIER_KNOTS.);
#306 = CARTESIAN_POINT('',(1.570796326795,-5.999999999062E-07));
#307 = CARTESIAN_POINT('',(1.570796326795,8.0000006));
#308 = ( GEOMETRIC_REPRESENTATION_CONTEXT(2) 
PARAMETRIC_REPRESENTATION_CONTEXT() REPRESENTATION_CONTEXT('2D SPACE',''
  ) );
#309 = ORIENTED_EDGE('',*,*,#310,.F.);
#310 = EDGE_CURVE('',#311,#290,#313,.T.);
#311 = VERTEX_POINT('',#312);
#312 = CARTESIAN_POINT('',(-24.,-2.5,9.033317595303E-16));
#313 = SURFACE_CURVE('',#314,(#318,#324),.PCURVE_S1.);
#314 = LINE('',#315,#316);
#315 = CARTESIAN_POINT('',(-24.,0.576885975864,0.));
#316 = VECTOR('',#317,1.);
#317 = DIRECTION('',(0.,1.,0.));
#318 = PCURVE('',#48,#319);
#319 = DEFINITIONAL_REPRESENTATION('',(#320),#323);
#320 = B_SPLINE_CURVE_WITH_KNOTS('',1,(#321,#322),.UNSPECIFIED.,.F.,.F.,
  (2,2),(-3.076885975864,1.923114024136),.PIECEWISE_BEZIER_KNOTS.);
#321 = CARTESIAN_POINT('',(-24.,-3.653771951728));
#322 = CARTESIAN_POINT('',(-24.,1.346228048272));
#323 = ( GEOMETRIC_REPRESENTATION_CONTEXT(2) 
PARAMETRIC_REPRESENTATION_CONTEXT() REPRESENTATION_CONTEXT('2D SPACE',''
  ) );
#324 = PCURVE('',#325,#330);
#325 = PLANE('',#326);
#326 = AXIS2_PLACEMENT_3D('',#327,#328,#329);
#327 = CARTESIAN_POINT('',(-24.,0.,4.440892098501E-16));
#328 = DIRECTION('',(1.,0.,1.110223024625E-16));
#329 = DIRECTION('',(1.110223024625E-16,0.,-1.));
#330 = DEFINITIONAL_REPRESENTATION('',(#331),#334);
#331 = B_SPLINE_CURVE_WITH_KNOTS('',1,(#332,#333),.UNSPECIFIED.,.F.,.F.,
  (2,2),(-3.076885975864,1.923114024136),.PIECEWISE_BEZIER_KNOTS.);
#332 = CARTESIAN_POINT('',(4.440892098501E-16,-2.5));
#333 = CARTESIAN_POINT('',(4.440892098501E-16,2.5));
#334 = ( GEOMETRIC_REPRESENTATION_CONTEXT(2) 
PARAMETRIC_REPRESENTATION_CONTEXT() REPRESENTATION_CONTEXT('2D SPACE',''
  ) );
#335 = ORIENTED_EDGE('',*,*,#336,.F.);
#336 = EDGE_CURVE('',#112,#311,#337,.T.);
#337 = SURFACE_CURVE('',#338,(#342,#348),.PCURVE_S1.);
#338 = LINE('',#339,#340);
#339 = CARTESIAN_POINT('',(-32.,-2.5,0.));
#340 = VECTOR('',#341,1.);
#341 = DIRECTION('',(1.,0.,1.110223024625E-16));
#342 = PCURVE('',#48,#343);
#343 = DEFINITIONAL_REPRESENTATION('',(#344),#347);
#344 = B_SPLINE_CURVE_WITH_KNOTS('',1,(#345,#346),.UNSPECIFIED.,.F.,.F.,
  (2,2),(-5.999999999062E-07,8.0000006),.PIECEWISE_BEZIER_KNOTS.);
#345 = CARTESIAN_POINT('',(-32.0000006,-3.653771951728));
#346 = CARTESIAN_POINT('',(-23.9999994,-3.653771951728));
#347 = ( GEOMETRIC_REPRESENTATION_CONTEXT(2) 
PARAMETRIC_REPRESENTATION_CONTEXT() REPRESENTATION_CONTEXT('2D SPACE',''
  ) );
#348 = PCURVE('',#231,#349);
#349 = DEFINITIONAL_REPRESENTATION('',(#350),#353);
#350 = B_SPLINE_CURVE_WITH_KNOTS('',1,(#351,#352),.UNSPECIFIED.,.F.,.F.,
  (2,2),(-5.999999999062E-07,8.0000006),.PIECEWISE_BEZIER_KNOTS.);
#351 = CARTESIAN_POINT('',(4.712388980385,-5.999999999062E-07));
#352 = CARTESIAN_POINT('',(4.712388980385,8.0000006));
#353 = ( GEOMETRIC_REPRESENTATION_CONTEXT(2) 
PARAMETRIC_REPRESENTATION_CONTEXT() REPRESENTATION_CONTEXT('2D SPACE',''
  ) );
#354 = ADVANCED_FACE('',(#355),#231,.F.);
#355 = FACE_BOUND('',#356,.F.);
#356 = EDGE_LOOP('',(#357,#379,#380,#381));
#357 = ORIENTED_EDGE('',*,*,#358,.F.);
#358 = EDGE_CURVE('',#290,#311,#359,.T.);
#359 = SURFACE_CURVE('',#360,(#365,#372),.PCURVE_S1.);
#360 = CIRCLE('',#361,2.5);
#361 = AXIS2_PLACEMENT_3D('',#362,#363,#364);
#362 = CARTESIAN_POINT('',(-24.,0.,4.440892098501E-16));
#363 = DIRECTION('',(1.,-0.,1.110223024625E-16));
#364 = DIRECTION('',(1.110223024625E-16,0.,-1.));
#365 = PCURVE('',#231,#366);
#366 = DEFINITIONAL_REPRESENTATION('',(#367),#371);
#367 = LINE('',#368,#369);
#368 = CARTESIAN_POINT('',(0.,8.));
#369 = VECTOR('',#370,1.);
#370 = DIRECTION('',(1.,0.));
#371 = ( GEOMETRIC_REPRESENTATION_CONTEXT(2) 
PARAMETRIC_REPRESENTATION_CONTEXT() REPRESENTATION_CONTEXT('2D SPACE',''
  ) );
#372 = PCURVE('',#325,#373);
#373 = DEFINITIONAL_REPRESENTATION('',(#374),#378);
#374 = CIRCLE('',#375,2.5);
#375 = AXIS2_PLACEMENT_2D('',#376,#377);
#376 = CARTESIAN_POINT('',(0.,0.));
#377 = DIRECTION('',(1.,0.));
#378 = ( GEOMETRIC_REPRESENTATION_CONTEXT(2) 
PARAMETRIC_REPRESENTATION_CONTEXT() REPRESENTATION_CONTEXT('2D SPACE',''
  ) );
#379 = ORIENTED_EDGE('',*,*,#289,.F.);
#380 = ORIENTED_EDGE('',*,*,#135,.F.);
#381 = ORIENTED_EDGE('',*,*,#336,.T.);
#382 = ADVANCED_FACE('',(#383),#98,.T.);
#383 = FACE_BOUND('',#384,.T.);
#384 = EDGE_LOOP('',(#385));
#385 = ORIENTED_EDGE('',*,*,#83,.T.);
#386 = ADVANCED_FACE('',(#387),#325,.F.);
#387 = FACE_BOUND('',#388,.F.);
#388 = EDGE_LOOP('',(#389,#390));
#389 = ORIENTED_EDGE('',*,*,#310,.T.);
#390 = ORIENTED_EDGE('',*,*,#358,.T.);
#391 = ORIENTED_CLOSED_SHELL('',*,#392,.F.);
#392 = CLOSED_SHELL('',(#393,#481,#485));
#393 = ADVANCED_FACE('',(#394),#407,.T.);
#394 = FACE_BOUND('',#395,.T.);
#395 = EDGE_LOOP('',(#396,#430,#453,#480));
#396 = ORIENTED_EDGE('',*,*,#397,.F.);
#397 = EDGE_CURVE('',#398,#398,#400,.T.);
#398 = VERTEX_POINT('',#399);
#399 = CARTESIAN_POINT('',(-7.,-12.,11.));
#400 = SURFACE_CURVE('',#401,(#406,#418),.PCURVE_S1.);
#401 = CIRCLE('',#402,3.);
#402 = AXIS2_PLACEMENT_3D('',#403,#404,#405);
#403 = CARTESIAN_POINT('',(-10.,-12.,11.));
#404 = DIRECTION('',(0.,0.,1.));
#405 = DIRECTION('',(1.,0.,0.));
#406 = PCURVE('',#407,#412);
#407 = CYLINDRICAL_SURFACE('',#408,3.);
#408 = AXIS2_PLACEMENT_3D('',#409,#410,#411);
#409 = CARTESIAN_POINT('',(-10.,-12.,7.));
#410 = DIRECTION('',(0.,0.,1.));
#411 = DIRECTION('',(1.,0.,0.));
#412 = DEFINITIONAL_REPRESENTATION('',(#413),#417);
#413 = LINE('',#414,#415);
#414 = CARTESIAN_POINT('',(0.,4.));
#415 = VECTOR('',#416,1.);
#416 = DIRECTION('',(1.,0.));
#417 = ( GEOMETRIC_REPRESENTATION_CONTEXT(2) 
PARAMETRIC_REPRESENTATION_CONTEXT() REPRESENTATION_CONTEXT('2D SPACE',''
  ) );
#418 = PCURVE('',#419,#424);
#419 = PLANE('',#420);
#420 = AXIS2_PLACEMENT_3D('',#421,#422,#423);
#421 = CARTESIAN_POINT('',(-10.,-12.,11.));
#422 = DIRECTION('',(0.,0.,1.));
#423 = DIRECTION('',(1.,0.,0.));
#424 = DEFINITIONAL_REPRESENTATION('',(#425),#429);
#425 = CIRCLE('',#426,3.);
#426 = AXIS2_PLACEMENT_2D('',#427,#428);
#427 = CARTESIAN_POINT('',(0.,0.));
#428 = DIRECTION('',(1.,0.));
#429 = ( GEOMETRIC_REPRESENTATION_CONTEXT(2) 
PARAMETRIC_REPRESENTATION_CONTEXT() REPRESENTATION_CONTEXT('2D SPACE',''
  ) );
#430 = ORIENTED_EDGE('',*,*,#431,.F.);
#431 = EDGE_CURVE('',#432,#398,#434,.T.);
#432 = VERTEX_POINT('',#433);
#433 = CARTESIAN_POINT('',(-7.,-12.,7.));
#434 = SEAM_CURVE('',#435,(#439,#446),.PCURVE_S1.);
#435 = LINE('',#436,#437);
#436 = CARTESIAN_POINT('',(-7.,-12.,7.));
#437 = VECTOR('',#438,1.);
#438 = DIRECTION('',(0.,0.,1.));
#439 = PCURVE('',#407,#440);
#440 = DEFINITIONAL_REPRESENTATION('',(#441),#445);
#441 = LINE('',#442,#443);
#442 = CARTESIAN_POINT('',(6.28318530718,-0.));
#443 = VECTOR('',#444,1.);
#444 = DIRECTION('',(0.,1.));
#445 = ( GEOMETRIC_REPRESENTATION_CONTEXT(2) 
PARAMETRIC_REPRESENTATION_CONTEXT() REPRESENTATION_CONTEXT('2D SPACE',''
  ) );
#446 = PCURVE('',#407,#447);
#447 = DEFINITIONAL_REPRESENTATION('',(#448),#452);
#448 = LINE('',#449,#450);
#449 = CARTESIAN_POINT('',(0.,-0.));
#450 = VECTOR('',#451,1.);
#451 = DIRECTION('',(0.,1.));
#452 = ( GEOMETRIC_REPRESENTATION_CONTEXT(2) 
PARAMETRIC_REPRESENTATION_CONTEXT() REPRESENTATION_CONTEXT('2D SPACE',''
  ) );
#453 = ORIENTED_EDGE('',*,*,#454,.T.);
#454 = EDGE_CURVE('',#432,#432,#455,.T.);
#455 = SURFACE_CURVE('',#456,(#461,#468),.PCURVE_S1.);
#456 = CIRCLE('',#457,3.);
#457 = AXIS2_PLACEMENT_3D('',#458,#459,#460);
#458 = CARTESIAN_POINT('',(-10.,-12.,7.));
#459 = DIRECTION('',(0.,0.,1.));
#460 = DIRECTION('',(1.,0.,0.));
#461 = PCURVE('',#407,#462);
#462 = DEFINITIONAL_REPRESENTATION('',(#463),#467);
#463 = LINE('',#464,#465);
#464 = CARTESIAN_POINT('',(0.,0.));
#465 = VECTOR('',#466,1.);
#466 = DIRECTION('',(1.,0.));
#467 = ( GEOMETRIC_REPRESENTATION_CONTEXT(2) 
PARAMETRIC_REPRESENTATION_CONTEXT() REPRESENTATION_CONTEXT('2D SPACE',''
  ) );
#468 = PCURVE('',#469,#474);
#469 = PLANE('',#470);
#470 = AXIS2_PLACEMENT_3D('',#471,#472,#473);
#471 = CARTESIAN_POINT('',(-10.,-12.,7.));
#472 = DIRECTION('',(0.,0.,1.));
#473 = DIRECTION('',(1.,0.,0.));
#474 = DEFINITIONAL_REPRESENTATION('',(#475),#479);
#475 = CIRCLE('',#476,3.);
#476 = AXIS2_PLACEMENT_2D('',#477,#478);
#477 = CARTESIAN_POINT('',(0.,0.));
#478 = DIRECTION('',(1.,0.));
#479 = ( GEOMETRIC_REPRESENTATION_CONTEXT(2) 
PARAMETRIC_REPRESENTATION_CONTEXT() REPRESENTATION_CONTEXT('2D SPACE',''
  ) );
#480 = ORIENTED_EDGE('',*,*,#431,.T.);
#481 = ADVANCED_FACE('',(#482),#419,.T.);
#482 = FACE_BOUND('',#483,.T.);
#483 = EDGE_LOOP('',(#484));
#484 = ORIENTED_EDGE('',*,*,#397,.T.);
#485 = ADVANCED_FACE('',(#486),#469,.F.);
#486 = FACE_BOUND('',#487,.T.);
#487 = EDGE_LOOP('',(#488));
#488 = ORIENTED_EDGE('',*,*,#454,.F.);
#489 = ORIENTED_CLOSED_SHELL('',*,#490,.F.);
#490 = CLOSED_SHELL('',(#491,#579,#583));
#491 = ADVANCED_FACE('',(#492),#505,.T.);
#492 = FACE_BOUND('',#493,.T.);
#493 = EDGE_LOOP('',(#494,#528,#551,#578));
#494 = ORIENTED_EDGE('',*,*,#495,.F.);
#495 = EDGE_CURVE('',#496,#496,#498,.T.);
#496 = VERTEX_POINT('',#497);
#497 = CARTESIAN_POINT('',(13.,-12.,11.));
#498 = SURFACE_CURVE('',#499,(#504,#516),.PCURVE_S1.);
#499 = CIRCLE('',#500,3.);
#500 = AXIS2_PLACEMENT_3D('',#501,#502,#503);
#501 = CARTESIAN_POINT('',(10.,-12.,11.));
#502 = DIRECTION('',(0.,0.,1.));
#503 = DIRECTION('',(1.,0.,0.));
#504 = PCURVE('',#505,#510);
#505 = CYLINDRICAL_SURFACE('',#506,3.);
#506 = AXIS2_PLACEMENT_3D('',#507,#508,#509);
#507 = CARTESIAN_POINT('',(10.,-12.,7.));
#508 = DIRECTION('',(0.,0.,1.));
#509 = DIRECTION('',(1.,0.,0.));
#510 = DEFINITIONAL_REPRESENTATION('',(#511),#515);
#511 = LINE('',#512,#513);
#512 = CARTESIAN_POINT('',(0.,4.));
#513 = VECTOR('',#514,1.);
#514 = DIRECTION('',(1.,0.));
#515 = ( GEOMETRIC_REPRESENTATION_CONTEXT(2) 
PARAMETRIC_REPRESENTATION_CONTEXT() REPRESENTATION_CONTEXT('2D SPACE',''
  ) );
#516 = PCURVE('',#517,#522);
#517 = PLANE('',#518);
#518 = AXIS2_PLACEMENT_3D('',#519,#520,#521);
#519 = CARTESIAN_POINT('',(10.,-12.,11.));
#520 = DIRECTION('',(0.,0.,1.));
#521 = DIRECTION('',(1.,0.,0.));
#522 = DEFINITIONAL_REPRESENTATION('',(#523),#527);
#523 = CIRCLE('',#524,3.);
#524 = AXIS2_PLACEMENT_2D('',#525,#526);
#525 = CARTESIAN_POINT('',(0.,0.));
#526 = DIRECTION('',(1.,0.));
#527 = ( GEOMETRIC_REPRESENTATION_CONTEXT(2) 
PARAMETRIC_REPRESENTATION_CONTEXT() REPRESENTATION_CONTEXT('2D SPACE',''
  ) );
#528 = ORIENTED_EDGE('',*,*,#529,.F.);
#529 = EDGE_CURVE('',#530,#496,#532,.T.);
#530 = VERTEX_POINT('',#531);
#531 = CARTESIAN_POINT('',(13.,-12.,7.));
#532 = SEAM_CURVE('',#533,(#537,#544),.PCURVE_S1.);
#533 = LINE('',#534,#535);
#534 = CARTESIAN_POINT('',(13.,-12.,7.));
#535 = VECTOR('',#536,1.);
#536 = DIRECTION('',(0.,0.,1.));
#537 = PCURVE('',#505,#538);
#538 = DEFINITIONAL_REPRESENTATION('',(#539),#543);
#539 = LINE('',#540,#541);
#540 = CARTESIAN_POINT('',(6.28318530718,-0.));
#541 = VECTOR('',#542,1.);
#542 = DIRECTION('',(0.,1.));
#543 = ( GEOMETRIC_REPRESENTATION_CONTEXT(2) 
PARAMETRIC_REPRESENTATION_CONTEXT() REPRESENTATION_CONTEXT('2D SPACE',''
  ) );
#544 = PCURVE('',#505,#545);
#545 = DEFINITIONAL_REPRESENTATION('',(#546),#550);
#546 = LINE('',#547,#548);
#547 = CARTESIAN_POINT('',(0.,-0.));
#548 = VECTOR('',#549,1.);
#549 = DIRECTION('',(0.,1.));
#550 = ( GEOMETRIC_REPRESENTATION_CONTEXT(2) 
PARAMETRIC_REPRESENTATION_CONTEXT() REPRESENTATION_CONTEXT('2D SPACE',''
  ) );
#551 = ORIENTED_EDGE('',*,*,#552,.T.);
#552 = EDGE_CURVE('',#530,#530,#553,.T.);
#553 = SURFACE_CURVE('',#554,(#559,#566),.PCURVE_S1.);
#554 = CIRCLE('',#555,3.);
#555 = AXIS2_PLACEMENT_3D('',#556,#557,#558);
#556 = CARTESIAN_POINT('',(10.,-12.,7.));
#557 = DIRECTION('',(0.,0.,1.));
#558 = DIRECTION('',(1.,0.,0.));
#559 = PCURVE('',#505,#560);
#560 = DEFINITIONAL_REPRESENTATION('',(#561),#565);
#561 = LINE('',#562,#563);
#562 = CARTESIAN_POINT('',(0.,0.));
#563 = VECTOR('',#564,1.);
#564 = DIRECTION('',(1.,0.));
#565 = ( GEOMETRIC_REPRESENTATION_CONTEXT(2) 
PARAMETRIC_REPRESENTATION_CONTEXT() REPRESENTATION_CONTEXT('2D SPACE',''
  ) );
#566 = PCURVE('',#567,#572);
#567 = PLANE('',#568);
#568 = AXIS2_PLACEMENT_3D('',#569,#570,#571);
#569 = CARTESIAN_POINT('',(10.,-12.,7.));
#570 = DIRECTION('',(0.,0.,1.));
#571 = DIRECTION('',(1.,0.,0.));
#572 = DEFINITIONAL_REPRESENTATION('',(#573),#577);
#573 = CIRCLE('',#574,3.);
#574 = AXIS2_PLACEMENT_2D('',#575,#576);
#575 = CARTESIAN_POINT('',(0.,0.));
#576 = DIRECTION('',(1.,0.));
#577 = ( GEOMETRIC_REPRESENTATION_CONTEXT(2) 
PARAMETRIC_REPRESENTATION_CONTEXT() REPRESENTATION_CONTEXT('2D SPACE',''
  ) );
#578 = ORIENTED_EDGE('',*,*,#529,.T.);
#579 = ADVANCED_FACE('',(#580),#517,.T.);
#580 = FACE_BOUND('',#581,.T.);
#581 = EDGE_LOOP('',(#582));
#582 = ORIENTED_EDGE('',*,*,#495,.T.);
#583 = ADVANCED_FACE('',(#584),#567,.F.);
#584 = FACE_BOUND('',#585,.T.);
#585 = EDGE_LOOP('',(#586));
#586 = ORIENTED_EDGE('',*,*,#552,.F.);
#587 = ORIENTED_CLOSED_SHELL('',*,#588,.F.);
#588 = CLOSED_SHELL('',(#589,#677,#681));
#589 = ADVANCED_FACE('',(#590),#603,.T.);
#590 = FACE_BOUND('',#591,.T.);
#591 = EDGE_LOOP('',(#592,#626,#649,#676));
#592 = ORIENTED_EDGE('',*,*,#593,.F.);
#593 = EDGE_CURVE('',#594,#594,#596,.T.);
#594 = VERTEX_POINT('',#595);
#595 = CARTESIAN_POINT('',(8.,6.,14.));
#596 = SURFACE_CURVE('',#597,(#602,#614),.PCURVE_S1.);
#597 = CIRCLE('',#598,8.);
#598 = AXIS2_PLACEMENT_3D('',#599,#600,#601);
#599 = CARTESIAN_POINT('',(0.,6.,14.));
#600 = DIRECTION('',(0.,0.,1.));
#601 = DIRECTION('',(1.,0.,0.));
#602 = PCURVE('',#603,#608);
#603 = CYLINDRICAL_SURFACE('',#604,8.);
#604 = AXIS2_PLACEMENT_3D('',#605,#606,#607);
#605 = CARTESIAN_POINT('',(0.,6.,4.));
#606 = DIRECTION('',(0.,0.,1.));
#607 = DIRECTION('',(1.,0.,0.));
#608 = DEFINITIONAL_REPRESENTATION('',(#609),#613);
#609 = LINE('',#610,#611);
#610 = CARTESIAN_POINT('',(0.,10.));
#611 = VECTOR('',#612,1.);
#612 = DIRECTION('',(1.,0.));
#613 = ( GEOMETRIC_REPRESENTATION_CONTEXT(2) 
PARAMETRIC_REPRESENTATION_CONTEXT() REPRESENTATION_CONTEXT('2D SPACE',''
  ) );
#614 = PCURVE('',#615,#620);
#615 = PLANE('',#616);
#616 = AXIS2_PLACEMENT_3D('',#617,#618,#619);
#617 = CARTESIAN_POINT('',(0.,6.,14.));
#618 = DIRECTION('',(0.,0.,1.));
#619 = DIRECTION('',(1.,0.,0.));
#620 = DEFINITIONAL_REPRESENTATION('',(#621),#625);
#621 = CIRCLE('',#622,8.);
#622 = AXIS2_PLACEMENT_2D('',#623,#624);
#623 = CARTESIAN_POINT('',(0.,0.));
#624 = DIRECTION('',(1.,0.));
#625 = ( GEOMETRIC_REPRESENTATION_CONTEXT(2) 
PARAMETRIC_REPRESENTATION_CONTEXT() REPRESENTATION_CONTEXT('2D SPACE',''
  ) );
#626 = ORIENTED_EDGE('',*,*,#627,.F.);
#627 = EDGE_CURVE('',#628,#594,#630,.T.);
#628 = VERTEX_POINT('',#629);
#629 = CARTESIAN_POINT('',(8.,6.,4.));
#630 = SEAM_CURVE('',#631,(#635,#642),.PCURVE_S1.);
#631 = LINE('',#632,#633);
#632 = CARTESIAN_POINT('',(8.,6.,4.));
#633 = VECTOR('',#634,1.);
#634 = DIRECTION('',(0.,0.,1.));
#635 = PCURVE('',#603,#636);
#636 = DEFINITIONAL_REPRESENTATION('',(#637),#641);
#637 = LINE('',#638,#639);
#638 = CARTESIAN_POINT('',(6.28318530718,-0.));
#639 = VECTOR('',#640,1.);
#640 = DIRECTION('',(0.,1.));
#641 = ( GEOMETRIC_REPRESENTATION_CONTEXT(2) 
PARAMETRIC_REPRESENTATION_CONTEXT() REPRESENTATION_CONTEXT('2D SPACE',''
  ) );
#642 = PCURVE('',#603,#643);
#643 = DEFINITIONAL_REPRESENTATION('',(#644),#648);
#644 = LINE('',#645,#646);
#645 = CARTESIAN_POINT('',(0.,-0.));
#646 = VECTOR('',#647,1.);
#647 = DIRECTION('',(0.,1.));
#648 = ( GEOMETRIC_REPRESENTATION_CONTEXT(2) 
PARAMETRIC_REPRESENTATION_CONTEXT() REPRESENTATION_CONTEXT('2D SPACE',''
  ) );
#649 = ORIENTED_EDGE('',*,*,#650,.T.);
#650 = EDGE_CURVE('',#628,#628,#651,.T.);
#651 = SURFACE_CURVE('',#652,(#657,#664),.PCURVE_S1.);
#652 = CIRCLE('',#653,8.);
#653 = AXIS2_PLACEMENT_3D('',#654,#655,#656);
#654 = CARTESIAN_POINT('',(0.,6.,4.));
#655 = DIRECTION('',(0.,0.,1.));
#656 = DIRECTION('',(1.,0.,0.));
#657 = PCURVE('',#603,#658);
#658 = DEFINITIONAL_REPRESENTATION('',(#659),#663);
#659 = LINE('',#660,#661);
#660 = CARTESIAN_POINT('',(0.,0.));
#661 = VECTOR('',#662,1.);
#662 = DIRECTION('',(1.,0.));
#663 = ( GEOMETRIC_REPRESENTATION_CONTEXT(2) 
PARAMETRIC_REPRESENTATION_CONTEXT() REPRESENTATION_CONTEXT('2D SPACE',''
  ) );
#664 = PCURVE('',#665,#670);
#665 = PLANE('',#666);
#666 = AXIS2_PLACEMENT_3D('',#667,#668,#669);
#667 = CARTESIAN_POINT('',(0.,6.,4.));
#668 = DIRECTION('',(0.,0.,1.));
#669 = DIRECTION('',(1.,0.,0.));
#670 = DEFINITIONAL_REPRESENTATION('',(#671),#675);
#671 = CIRCLE('',#672,8.);
#672 = AXIS2_PLACEMENT_2D('',#673,#674);
#673 = CARTESIAN_POINT('',(0.,0.));
#674 = DIRECTION('',(1.,0.));
#675 = ( GEOMETRIC_REPRESENTATION_CONTEXT(2) 
PARAMETRIC_REPRESENTATION_CONTEXT() REPRESENTATION_CONTEXT('2D SPACE',''
  ) );
#676 = ORIENTED_EDGE('',*,*,#627,.T.);
#677 = ADVANCED_FACE('',(#678),#615,.T.);
#678 = FACE_BOUND('',#679,.T.);
#679 = EDGE_LOOP('',(#680));
#680 = ORIENTED_EDGE('',*,*,#593,.T.);
#681 = ADVANCED_FACE('',(#682),#665,.F.);
#682 = FACE_BOUND('',#683,.T.);
#683 = EDGE_LOOP('',(#684));
#684 = ORIENTED_EDGE('',*,*,#650,.F.);
#685 = ( GEOMETRIC_REPRESENTATION_CONTEXT(3) 
GLOBAL_UNCERTAINTY_ASSIGNED_CONTEXT((#689)) GLOBAL_UNIT_ASSIGNED_CONTEXT
((#686,#687,#688)) REPRESENTATION_CONTEXT('Context #1',
  '3D Context with UNIT and UNCERTAINTY') );
#686 = ( LENGTH_UNIT() NAMED_UNIT(*) SI_UNIT(.MILLI.,.METRE.) );
#687 = ( NAMED_UNIT(*) PLANE_ANGLE_UNIT() SI_UNIT($,.RADIAN.) );
#688 = ( NAMED_UNIT(*) SI_UNIT($,.STERADIAN.) SOLID_ANGLE_UNIT() );
#689 = UNCERTAINTY_MEASURE_WITH_UNIT(LENGTH_MEASURE(1.E-06),#686,
  'distance_accuracy_value','confusion accuracy');
#690 = PRODUCT_RELATED_PRODUCT_CATEGORY('part',$,(#7));
ENDSEC;
END-ISO-10303-21;
